<?xml version="1.0" encoding="UTF-8"?>
<!DOCTYPE svg PUBLIC "-//W3C//DTD SVG 1.1//EN" "http://www.w3.org/Graphics/SVG/1.1/DTD/svg11.dtd">
<svg xmlns="http://www.w3.org/2000/svg" version="1.1" width="225px" height="225px" style="shape-rendering:geometricPrecision; text-rendering:geometricPrecision; image-rendering:optimizeQuality; fill-rule:evenodd; clip-rule:evenodd" xmlns:xlink="http://www.w3.org/1999/xlink">
<g><path style="opacity:0.208" fill="#91aea2" d="M 203.5,15.5 C 172.833,15.5 142.167,15.5 111.5,15.5C 107.167,15.5 102.833,15.5 98.5,15.5C 73.5,15.5 48.5,15.5 23.5,15.5C 27.6599,14.643 31.9932,13.9764 36.5,13.5C 92.3196,14.1545 147.986,14.8212 203.5,15.5 Z"/></g>
<g><path style="opacity:0.991" fill="#0e0e0e" d="M 111.5,15.5 C 142.167,15.5 172.833,15.5 203.5,15.5C 204.897,44.3512 204.73,73.3512 203,102.5C 201.454,118.083 197.954,133.083 192.5,147.5C 191.448,147.351 190.448,147.517 189.5,148C 190.38,149.356 190.714,150.856 190.5,152.5C 189.178,152.33 188.011,152.663 187,153.5C 186.536,152.906 186.369,152.239 186.5,151.5C 186.784,149.585 186.451,147.919 185.5,146.5C 183.919,144.858 183.253,142.858 183.5,140.5C 183.5,139.833 183.5,139.167 183.5,138.5C 183.737,137.209 183.404,136.209 182.5,135.5C 182.5,134.833 182.167,134.5 181.5,134.5C 182.39,132.218 182.556,129.885 182,127.5C 181.59,128.901 181.09,130.234 180.5,131.5C 179.833,131.833 179.167,132.167 178.5,132.5C 176.849,130.336 175.182,128.169 173.5,126C 174.477,124.503 175.477,123.003 176.5,121.5C 176.239,118.451 175.239,115.785 173.5,113.5C 174.165,106.52 174.498,99.5197 174.5,92.5C 175.495,80.6783 175.828,68.6783 175.5,56.5C 173.901,56.2322 172.568,56.5655 171.5,57.5C 151.5,57.5 131.5,57.5 111.5,57.5C 111.5,56.8333 111.5,56.1667 111.5,55.5C 112.338,55.1583 112.672,54.4916 112.5,53.5C 114.436,49.2853 115.103,44.6186 114.5,39.5C 112.798,37.1998 112.132,34.5331 112.5,31.5C 122.833,31.5 133.167,31.5 143.5,31.5C 143.817,27.2984 143.483,23.2984 142.5,19.5C 142.44,18.9569 142.107,18.6236 141.5,18.5C 140.513,21.7683 140.18,25.1016 140.5,28.5C 139.167,28.5 137.833,28.5 136.5,28.5C 136.29,22.0339 135.623,22.0339 134.5,28.5C 132.833,28.5 131.167,28.5 129.5,28.5C 128.366,15.3632 127.699,15.3632 127.5,28.5C 126.167,28.5 124.833,28.5 123.5,28.5C 123.813,25.7531 123.48,23.0865 122.5,20.5C 118.88,21.6006 116.88,23.934 116.5,27.5C 117.873,27.3433 119.207,27.51 120.5,28C 117.518,28.498 114.518,28.6646 111.5,28.5C 110.833,28.5 110.5,28.1667 110.5,27.5C 111.483,23.7016 111.817,19.7016 111.5,15.5 Z"/></g>
<g><path style="opacity:1" fill="#3f8a66" d="M 23.5,15.5 C 48.5,15.5 73.5,15.5 98.5,15.5C 98.5,16.5 98.5,17.5 98.5,18.5C 97.8826,18.6107 97.3826,18.944 97,19.5C 96.5012,23.4862 96.3345,27.4862 96.5,31.5C 95.8333,31.5 95.1667,31.5 94.5,31.5C 94.6655,27.4862 94.4988,23.4862 94,19.5C 93.6667,19.1667 93.3333,18.8333 93,18.5C 92.5017,21.8168 92.335,25.1501 92.5,28.5C 91.1667,28.5 89.8333,28.5 88.5,28.5C 88.7852,26.712 88.4519,25.0453 87.5,23.5C 85.7826,24.6685 85.1159,26.3352 85.5,28.5C 83.901,28.7678 82.5676,28.4345 81.5,27.5C 82.7775,26.2505 83.7775,24.7505 84.5,23C 84.1667,22.6667 83.8333,22.3333 83.5,22C 85.1922,20.5993 85.8588,18.7659 85.5,16.5C 73.8286,16.3335 62.1619,16.5001 50.5,17C 50.9662,18.2988 50.9662,19.7988 50.5,21.5C 49.8333,21.5 49.1667,21.5 48.5,21.5C 46.0283,22.6421 45.0283,24.6421 45.5,27.5C 46.8734,27.3433 48.2068,27.51 49.5,28C 46.854,28.4974 44.1873,28.6641 41.5,28.5C 41.2896,22.0339 40.623,22.0339 39.5,28.5C 38.1667,28.5 36.8333,28.5 35.5,28.5C 35.5,27.1667 35.5,25.8333 35.5,24.5C 30.1886,23.9724 27.8553,26.3057 28.5,31.5C 27.6648,28.0063 27.6648,24.3397 28.5,20.5C 30.143,20.5198 31.4763,19.8532 32.5,18.5C 34.9132,19.9035 37.0799,21.5702 39,23.5C 41.4388,22.1384 41.9388,20.305 40.5,18C 34.2855,16.5845 27.9522,16.0845 21.5,16.5C 21.5,20.5 21.5,24.5 21.5,28.5C 21.2538,54.5138 21.5872,80.5138 22.5,106.5C 21.8333,103.833 21.1667,101.167 20.5,98.5C 18.2288,71.332 18.0622,43.9986 20,16.5C 21.0113,15.6634 22.1779,15.33 23.5,15.5 Z"/></g>
<g><path style="opacity:1" fill="#97e7c6" d="M 48.5,21.5 C 47.1984,20.1931 45.865,20.1931 44.5,21.5C 43.1667,20.5 43.1667,19.5 44.5,18.5C 45.5,19.8333 46.5,19.8333 47.5,18.5C 49.5193,19.1329 49.8526,20.1329 48.5,21.5 Z"/></g>
<g><path style="opacity:1" fill="#cad1cf" d="M 114.5,18.5 C 116.465,18.9483 116.798,19.9483 115.5,21.5C 114.614,20.675 114.281,19.675 114.5,18.5 Z"/></g>
<g><path style="opacity:1" fill="#b7b6b6" d="M 117.5,18.5 C 118.675,18.281 119.675,18.6143 120.5,19.5C 118.948,20.7979 117.948,20.4646 117.5,18.5 Z"/></g>
<g><path style="opacity:1" fill="#23885b" d="M 81.5,27.5 C 77.8131,25.6571 73.8131,24.9905 69.5,25.5C 69.7989,23.396 69.4656,21.396 68.5,19.5C 67.5159,22.4281 67.1826,25.4281 67.5,28.5C 66.5,28.5 65.5,28.5 64.5,28.5C 64.7852,26.712 64.4519,25.0453 63.5,23.5C 61.7826,24.6685 61.1159,26.3352 61.5,28.5C 60.1667,28.5 58.8333,28.5 57.5,28.5C 57.6602,26.8008 57.4935,25.1341 57,23.5C 55.1079,24.6174 54.2746,26.2841 54.5,28.5C 53.5,28.5 52.5,28.5 51.5,28.5C 51.8016,25.9407 51.4682,23.6074 50.5,21.5C 50.9662,19.7988 50.9662,18.2988 50.5,17C 62.1619,16.5001 73.8286,16.3335 85.5,16.5C 85.8588,18.7659 85.1922,20.5993 83.5,22C 83.8333,22.3333 84.1667,22.6667 84.5,23C 83.7775,24.7505 82.7775,26.2505 81.5,27.5 Z"/></g>
<g><path style="opacity:1" fill="#707070" d="M 142.5,19.5 C 141.833,22.5 141.167,25.5 140.5,28.5C 140.18,25.1016 140.513,21.7683 141.5,18.5C 142.107,18.6236 142.44,18.9569 142.5,19.5 Z"/></g>
<g><path style="opacity:1" fill="#999999" d="M 153.5,20.5 C 155.167,20.5 156.833,20.5 158.5,20.5C 158.719,21.675 158.386,22.675 157.5,23.5C 156.268,22.8555 154.935,22.6888 153.5,23C 152.402,22.2303 152.402,21.397 153.5,20.5 Z"/></g>
<g><path style="opacity:1" fill="#238155" d="M 98.5,15.5 C 102.833,15.5 107.167,15.5 111.5,15.5C 111.817,19.7016 111.483,23.7016 110.5,27.5C 110.665,24.4816 110.498,21.4816 110,18.5C 109.617,19.056 109.117,19.3893 108.5,19.5C 107.691,21.2922 107.191,23.2922 107,25.5C 105.887,24.2889 104.72,24.2889 103.5,25.5C 102.148,24.4756 100.815,23.4756 99.5,22.5C 99.7678,20.901 99.4345,19.5676 98.5,18.5C 98.5,17.5 98.5,16.5 98.5,15.5 Z"/></g>
<g><path style="opacity:1" fill="#cafae9" d="M 110.5,27.5 C 110.5,28.1667 110.833,28.5 111.5,28.5C 111.557,29.609 111.89,30.609 112.5,31.5C 112.167,31.5 111.833,31.5 111.5,31.5C 110.5,31.5 109.5,31.5 108.5,31.5C 108.5,27.5 108.5,23.5 108.5,19.5C 109.117,19.3893 109.617,19.056 110,18.5C 110.498,21.4816 110.665,24.4816 110.5,27.5 Z"/></g>
<g><path style="opacity:1" fill="#ededed" d="M 146.5,19.5 C 147.483,23.2984 147.817,27.2984 147.5,31.5C 146.206,29.9522 145.539,27.9522 145.5,25.5C 145.505,23.3035 145.838,21.3035 146.5,19.5 Z"/></g>
<g><path style="opacity:1" fill="#6a6a6a" d="M 146.5,19.5 C 146.56,18.9569 146.893,18.6236 147.5,18.5C 148.811,22.9838 148.811,27.3171 147.5,31.5C 147.817,27.2984 147.483,23.2984 146.5,19.5 Z"/></g>
<g><path style="opacity:1" fill="#a7e9d2" d="M 98.5,18.5 C 99.4345,19.5676 99.7678,20.901 99.5,22.5C 99.5,25.5 99.5,28.5 99.5,31.5C 98.5,31.5 97.5,31.5 96.5,31.5C 96.3345,27.4862 96.5012,23.4862 97,19.5C 97.3826,18.944 97.8826,18.6107 98.5,18.5 Z"/></g>
<g><path style="opacity:1" fill="#e4e4e4" d="M 176.5,23.5 C 178.369,25.6353 179.036,28.3019 178.5,31.5C 169.833,31.5 161.167,31.5 152.5,31.5C 152.351,26.7332 154.684,24.3999 159.5,24.5C 159.5,25.8333 159.5,27.1667 159.5,28.5C 160.5,28.5 161.5,28.5 162.5,28.5C 162.33,27.1779 162.663,26.0113 163.5,25C 165.579,24.1923 167.579,24.359 169.5,25.5C 168.167,26.1667 166.833,26.8333 165.5,27.5C 166.5,27.8333 167.5,28.1667 168.5,28.5C 171.164,26.8379 173.83,25.1712 176.5,23.5 Z"/></g>
<g><path style="opacity:1" fill="#d9d9d9" d="M 181.5,18.5 C 182.479,21.6248 182.813,24.9581 182.5,28.5C 184.527,28.6621 186.527,28.4955 188.5,28C 187.552,27.5172 186.552,27.3505 185.5,27.5C 185.5,26.5 185.5,25.5 185.5,24.5C 186.873,24.3433 188.207,24.51 189.5,25C 190.862,27.0344 191.862,29.2011 192.5,31.5C 188.167,31.5 183.833,31.5 179.5,31.5C 178.975,26.8602 179.642,22.5269 181.5,18.5 Z"/></g>
<g><path style="opacity:1" fill="#c8f2e3" d="M 94.5,31.5 C 84.1667,31.5 73.8333,31.5 63.5,31.5C 54.1667,31.5 44.8333,31.5 35.5,31.5C 33.1667,31.5 30.8333,31.5 28.5,31.5C 27.8553,26.3057 30.1886,23.9724 35.5,24.5C 35.5,25.8333 35.5,27.1667 35.5,28.5C 36.8333,28.5 38.1667,28.5 39.5,28.5C 40.623,22.0339 41.2896,22.0339 41.5,28.5C 44.1873,28.6641 46.854,28.4974 49.5,28C 48.2068,27.51 46.8734,27.3433 45.5,27.5C 45.0283,24.6421 46.0283,22.6421 48.5,21.5C 49.1667,21.5 49.8333,21.5 50.5,21.5C 51.4682,23.6074 51.8016,25.9407 51.5,28.5C 52.5,28.5 53.5,28.5 54.5,28.5C 54.2746,26.2841 55.1079,24.6174 57,23.5C 57.4935,25.1341 57.6602,26.8008 57.5,28.5C 58.8333,28.5 60.1667,28.5 61.5,28.5C 61.1159,26.3352 61.7826,24.6685 63.5,23.5C 64.4519,25.0453 64.7852,26.712 64.5,28.5C 65.5,28.5 66.5,28.5 67.5,28.5C 67.1826,25.4281 67.5159,22.4281 68.5,19.5C 69.4656,21.396 69.7989,23.396 69.5,25.5C 73.8131,24.9905 77.8131,25.6571 81.5,27.5C 82.5676,28.4345 83.901,28.7678 85.5,28.5C 85.1159,26.3352 85.7826,24.6685 87.5,23.5C 88.4519,25.0453 88.7852,26.712 88.5,28.5C 89.8333,28.5 91.1667,28.5 92.5,28.5C 92.335,25.1501 92.5017,21.8168 93,18.5C 93.3333,18.8333 93.6667,19.1667 94,19.5C 94.4988,23.4862 94.6655,27.4862 94.5,31.5 Z"/></g>
<g><path style="opacity:1" fill="#eeefee" d="M 140.5,28.5 C 141.167,25.5 141.833,22.5 142.5,19.5C 143.483,23.2984 143.817,27.2984 143.5,31.5C 133.167,31.5 122.833,31.5 112.5,31.5C 111.89,30.609 111.557,29.609 111.5,28.5C 114.518,28.6646 117.518,28.498 120.5,28C 119.207,27.51 117.873,27.3433 116.5,27.5C 116.88,23.934 118.88,21.6006 122.5,20.5C 123.48,23.0865 123.813,25.7531 123.5,28.5C 124.833,28.5 126.167,28.5 127.5,28.5C 127.699,15.3632 128.366,15.3632 129.5,28.5C 131.167,28.5 132.833,28.5 134.5,28.5C 135.623,22.0339 136.29,22.0339 136.5,28.5C 137.833,28.5 139.167,28.5 140.5,28.5 Z"/></g>
<g><path style="opacity:1" fill="#1b8756" d="M 28.5,31.5 C 30.8333,31.5 33.1667,31.5 35.5,31.5C 35.5,32.8333 35.5,34.1667 35.5,35.5C 38.1667,35.5 40.8333,35.5 43.5,35.5C 43.5,34.5 43.5,33.5 43.5,32.5C 45.604,32.2011 47.604,32.5344 49.5,33.5C 50.7476,35.69 52.4143,36.0234 54.5,34.5C 56.9421,36.5207 56.6087,38.1874 53.5,39.5C 51.5,39.5 49.5,39.5 47.5,39.5C 47.5,43.8333 47.5,48.1667 47.5,52.5C 41.9355,54.0297 36.4355,55.6963 31,57.5C 29.5867,55.5864 27.7534,54.2531 25.5,53.5C 24.7696,51.6587 24.1029,49.8254 23.5,48C 24.9437,42.6104 25.4437,37.1104 25,31.5C 24.9245,28.5527 23.7578,27.5527 21.5,28.5C 21.5,24.5 21.5,20.5 21.5,16.5C 27.9522,16.0845 34.2855,16.5845 40.5,18C 41.9388,20.305 41.4388,22.1384 39,23.5C 37.0799,21.5702 34.9132,19.9035 32.5,18.5C 31.4763,19.8532 30.143,20.5198 28.5,20.5C 27.6648,24.3397 27.6648,28.0063 28.5,31.5 Z"/></g>
<g><path style="opacity:1" fill="#1a8756" d="M 63.5,31.5 C 73.8333,31.5 84.1667,31.5 94.5,31.5C 95.1667,31.5 95.8333,31.5 96.5,31.5C 97.5,31.5 98.5,31.5 99.5,31.5C 100.167,31.5 100.833,31.5 101.5,31.5C 103.167,31.5 104.833,31.5 106.5,31.5C 107.708,32.2341 109.041,32.5674 110.5,32.5C 110.799,34.604 110.466,36.604 109.5,38.5C 105.86,38.7246 102.193,38.3913 98.5,37.5C 94.6044,37.6472 90.9377,38.3138 87.5,39.5C 85.7773,41.78 85.1107,44.4467 85.5,47.5C 84.5,47.5 83.5,47.5 82.5,47.5C 82.5,46.5 82.5,45.5 82.5,44.5C 83.1386,43.9032 83.472,43.0698 83.5,42C 83.3158,40.6244 82.6491,39.7911 81.5,39.5C 81.1667,39.5 80.8333,39.5 80.5,39.5C 79.0413,39.4326 77.7079,39.7659 76.5,40.5C 75.5084,40.3284 74.8417,40.6618 74.5,41.5C 72.4487,38.8529 70.4487,38.8529 68.5,41.5C 67.1667,41.1667 65.8333,40.8333 64.5,40.5C 64.5,40.1667 64.5,39.8333 64.5,39.5C 63.7375,38.7321 62.7375,38.2321 61.5,38C 64.1667,37.3333 64.1667,36.6667 61.5,36C 63.1066,34.951 63.7733,33.451 63.5,31.5 Z"/></g>
<g><path style="opacity:1" fill="#eaeaea" d="M 134.5,32.5 C 136.337,32.6395 136.67,33.3061 135.5,34.5C 134.702,34.0431 134.369,33.3764 134.5,32.5 Z"/></g>
<g><path style="opacity:1" fill="#d4d4d4" d="M 187.5,32.5 C 188.675,32.281 189.675,32.6143 190.5,33.5C 188.948,34.7979 187.948,34.4646 187.5,32.5 Z"/></g>
<g><path style="opacity:1" fill="#378564" d="M 35.5,31.5 C 44.8333,31.5 54.1667,31.5 63.5,31.5C 63.7733,33.451 63.1066,34.951 61.5,36C 64.1667,36.6667 64.1667,37.3333 61.5,38C 62.7375,38.2321 63.7375,38.7321 64.5,39.5C 63.5,39.5 62.5,39.5 61.5,39.5C 61.6641,42.1873 61.4974,44.854 61,47.5C 60.7132,45.1093 60.2132,42.7759 59.5,40.5C 58.675,39.6143 57.675,39.281 56.5,39.5C 55.178,51.1734 54.178,51.1734 53.5,39.5C 56.6087,38.1874 56.9421,36.5207 54.5,34.5C 52.4143,36.0234 50.7476,35.69 49.5,33.5C 47.604,32.5344 45.604,32.2011 43.5,32.5C 43.5,33.5 43.5,34.5 43.5,35.5C 40.8333,35.5 38.1667,35.5 35.5,35.5C 35.5,34.1667 35.5,32.8333 35.5,31.5 Z"/></g>
<g><path style="opacity:1" fill="#d3e3da" d="M 114.5,39.5 C 115.103,44.6186 114.436,49.2853 112.5,53.5C 111.897,48.3814 112.564,43.7147 114.5,39.5 Z"/></g>
<g><path style="opacity:1" fill="#1e1e1e" d="M 190.5,43.5 C 191.651,38.8258 190.818,38.4925 188,42.5C 187.751,41.376 187.251,40.376 186.5,39.5C 186.167,40.1667 185.833,40.8333 185.5,41.5C 186.372,45.8975 187.705,49.8975 189.5,53.5C 186.584,56.4703 184.751,55.8036 184,51.5C 183.722,52.4158 183.222,53.0825 182.5,53.5C 181.987,48.915 182.654,44.5817 184.5,40.5C 181.914,39.52 179.247,39.1866 176.5,39.5C 176.5,44.1667 176.5,48.8333 176.5,53.5C 175.833,53.5 175.5,53.1667 175.5,52.5C 175.662,50.4727 175.495,48.4727 175,46.5C 173.647,45.3147 172.48,43.9814 171.5,42.5C 171.833,42.1667 172.167,41.8333 172.5,41.5C 174.367,44.2291 175.367,43.8957 175.5,40.5C 178.892,38.7409 182.725,37.7409 187,37.5C 189.099,38.2865 191.266,38.6199 193.5,38.5C 193.626,40.1998 194.293,41.6998 195.5,43C 194.352,44.726 193.185,44.5593 192,42.5C 191.617,43.056 191.117,43.3893 190.5,43.5 Z"/></g>
<g><path style="opacity:1" fill="#d4d4d5" d="M 122.5,39.5 C 127.525,38.6945 129.858,40.8612 129.5,46C 130.104,51.4949 127.771,53.9949 122.5,53.5C 122.5,48.8333 122.5,44.1667 122.5,39.5 Z"/></g>
<g><path style="opacity:1" fill="#3e3f3f" d="M 124.5,41.5 C 125.765,42.5145 126.431,44.0145 126.5,46C 126.167,47.5 125.833,49 125.5,50.5C 124.516,47.5719 124.183,44.5719 124.5,41.5 Z"/></g>
<g><path style="opacity:1" fill="#bcf4df" d="M 74.5,41.5 C 74.6657,45.8461 74.499,50.1794 74,54.5C 72.3333,53.8333 70.6667,53.1667 69,52.5C 68.5014,48.8484 68.3347,45.1817 68.5,41.5C 70.4487,38.8529 72.4487,38.8529 74.5,41.5 Z"/></g>
<g><path style="opacity:1" fill="#7a7a7a" d="M 145.5,39.5 C 146.167,39.5 146.833,39.5 147.5,39.5C 147.5,44.1667 147.5,48.8333 147.5,53.5C 146.833,53.5 146.167,53.5 145.5,53.5C 145.5,48.8333 145.5,44.1667 145.5,39.5 Z"/></g>
<g><path style="opacity:1" fill="#dbd9da" d="M 175.5,40.5 C 175.367,43.8957 174.367,44.2291 172.5,41.5C 172.167,41.8333 171.833,42.1667 171.5,42.5C 172.48,43.9814 173.647,45.3147 175,46.5C 175.495,48.4727 175.662,50.4727 175.5,52.5C 170.768,54.6004 169.101,53.2671 170.5,48.5C 171.167,49.1667 171.833,49.8333 172.5,50.5C 172.833,50.1667 173.167,49.8333 173.5,49.5C 172.52,48.0186 171.353,46.6853 170,45.5C 168.91,42.421 169.743,40.0876 172.5,38.5C 173.518,39.1925 174.518,39.8592 175.5,40.5 Z"/></g>
<g><path style="opacity:1" fill="#d2d2d2" d="M 182.5,53.5 C 180.888,50.2557 179.888,46.589 179.5,42.5C 179.112,46.589 178.112,50.2557 176.5,53.5C 176.5,48.8333 176.5,44.1667 176.5,39.5C 179.247,39.1866 181.914,39.52 184.5,40.5C 182.654,44.5817 181.987,48.915 182.5,53.5 Z"/></g>
<g><path style="opacity:1" fill="#b6f4db" d="M 111.5,50.5 C 111.5,51.5 111.5,52.5 111.5,53.5C 109.833,53.5 108.167,53.5 106.5,53.5C 106.173,48.7863 106.507,44.1196 107.5,39.5C 108.489,43.1073 108.823,46.774 108.5,50.5C 109.5,50.5 110.5,50.5 111.5,50.5 Z"/></g>
<g><path style="opacity:1" fill="#cccccc" d="M 147.5,39.5 C 148.833,39.5 150.167,39.5 151.5,39.5C 151.907,46.0486 152.907,46.0486 154.5,39.5C 154.833,40.6667 155.167,41.8333 155.5,43C 154.837,46.4726 154.504,49.9726 154.5,53.5C 153.5,53.5 152.5,53.5 151.5,53.5C 151.002,50.5131 150.502,47.5131 150,44.5C 150.07,47.992 149.237,50.992 147.5,53.5C 147.5,48.8333 147.5,44.1667 147.5,39.5 Z"/></g>
<g><path style="opacity:1" fill="#97edc8" d="M 40.5,46.5 C 42.604,46.2011 44.604,46.5344 46.5,47.5C 45.5,47.8333 44.5,48.1667 43.5,48.5C 41.9704,48.3601 40.9704,47.6935 40.5,46.5 Z"/></g>
<g><path style="opacity:1" fill="#e0e0de" d="M 116.5,39.5 C 118.288,39.2148 119.955,39.5481 121.5,40.5C 120.675,41.3857 119.675,41.719 118.5,41.5C 118.5,42.5 118.5,43.5 118.5,44.5C 119.5,44.5 120.5,44.5 121.5,44.5C 121.5,45.5 121.5,46.5 121.5,47.5C 120.5,47.5 119.5,47.5 118.5,47.5C 118.5,48.5 118.5,49.5 118.5,50.5C 119.5,50.5 120.5,50.5 121.5,50.5C 121.5,51.5 121.5,52.5 121.5,53.5C 119.833,53.5 118.167,53.5 116.5,53.5C 116.5,48.8333 116.5,44.1667 116.5,39.5 Z"/></g>
<g><path style="opacity:1" fill="#e0e0e0" d="M 190.5,43.5 C 189.793,46.7861 189.46,50.1194 189.5,53.5C 187.705,49.8975 186.372,45.8975 185.5,41.5C 185.833,40.8333 186.167,40.1667 186.5,39.5C 187.251,40.376 187.751,41.376 188,42.5C 190.818,38.4925 191.651,38.8258 190.5,43.5 Z"/></g>
<g><path style="opacity:1" fill="#b9ead9" d="M 30.5,39.5 C 31.5,39.5 32.5,39.5 33.5,39.5C 34.4971,51.4826 35.4971,51.4826 36.5,39.5C 37.4892,43.1073 37.8226,46.774 37.5,50.5C 38.5,50.5 39.5,50.5 40.5,50.5C 40.5,51.5 40.5,52.5 40.5,53.5C 38.1667,53.5 35.8333,53.5 33.5,53.5C 33.5,52.5 33.5,51.5 33.5,50.5C 32.5,50.5 31.5,50.5 30.5,50.5C 29.8826,54.4221 29.2159,54.4221 28.5,50.5C 29.0619,46.7937 29.7285,43.1271 30.5,39.5 Z"/></g>
<g><path style="opacity:1" fill="#b4e7d5" d="M 80.5,39.5 C 80.9504,44.2016 81.617,48.8683 82.5,53.5C 81.5,53.5 80.5,53.5 79.5,53.5C 78.9965,49.6646 77.9965,49.6646 76.5,53.5C 76.1667,52.5 75.8333,51.5 75.5,50.5C 76.2096,47.2008 76.5429,43.8674 76.5,40.5C 77.7079,39.7659 79.0413,39.4326 80.5,39.5 Z"/></g>
<g><path style="opacity:1" fill="#e7e7e6" d="M 132.5,39.5 C 134.118,43.0844 135.118,47.0844 135.5,51.5C 136.167,47.5 136.833,43.5 137.5,39.5C 138.8,44.0503 138.8,48.5503 137.5,53C 135.567,53.7826 134.067,53.2826 133,51.5C 132.501,47.5138 132.334,43.5138 132.5,39.5 Z"/></g>
<g><path style="opacity:1" fill="#0f2d1e" d="M 111.5,31.5 C 111.833,31.5 112.167,31.5 112.5,31.5C 112.132,34.5331 112.798,37.1998 114.5,39.5C 112.564,43.7147 111.897,48.3814 112.5,53.5C 112.672,54.4916 112.338,55.1583 111.5,55.5C 111.5,54.8333 111.5,54.1667 111.5,53.5C 111.5,52.5 111.5,51.5 111.5,50.5C 111.5,44.1667 111.5,37.8333 111.5,31.5 Z"/></g>
<g><path style="opacity:1" fill="#abe0ce" d="M 53.5,39.5 C 54.178,51.1734 55.178,51.1734 56.5,39.5C 57.675,39.281 58.675,39.6143 59.5,40.5C 60.2132,42.7759 60.7132,45.1093 61,47.5C 61.4974,44.854 61.6641,42.1873 61.5,39.5C 62.5,39.5 63.5,39.5 64.5,39.5C 64.5,39.8333 64.5,40.1667 64.5,40.5C 64.5,43.8333 64.5,47.1667 64.5,50.5C 65.5,50.5 66.5,50.5 67.5,50.5C 67.5,51.5 67.5,52.5 67.5,53.5C 64.8333,53.5 62.1667,53.5 59.5,53.5C 59.5,52.5 59.5,51.5 59.5,50.5C 58.5,50.5 57.5,50.5 56.5,50.5C 56.3491,53.7181 55.5158,54.0515 54,51.5C 53.0053,52.0659 52.172,52.7326 51.5,53.5C 50.0413,53.5674 48.7079,53.2341 47.5,52.5C 47.5,48.1667 47.5,43.8333 47.5,39.5C 49.5,39.5 51.5,39.5 53.5,39.5 Z"/></g>
<g><path style="opacity:1" fill="#d6d6d6" d="M 145.5,39.5 C 145.5,44.1667 145.5,48.8333 145.5,53.5C 144.503,53.5299 143.836,53.0299 143.5,52C 142.873,49.8649 142.373,47.6982 142,45.5C 141.818,48.2263 141.318,50.8929 140.5,53.5C 139.507,48.8804 139.173,44.2137 139.5,39.5C 140.5,39.5 141.5,39.5 142.5,39.5C 142.343,40.8734 142.51,42.2068 143,43.5C 143.122,41.563 143.955,40.2297 145.5,39.5 Z"/></g>
<g><path style="opacity:1" fill="#e4e3e3" d="M 156.5,39.5 C 158.288,39.2148 159.955,39.5481 161.5,40.5C 160.675,41.3857 159.675,41.719 158.5,41.5C 158.5,42.5 158.5,43.5 158.5,44.5C 159.5,44.5 160.5,44.5 161.5,44.5C 161.5,45.5 161.5,46.5 161.5,47.5C 160.5,47.5 159.5,47.5 158.5,47.5C 158.5,48.5 158.5,49.5 158.5,50.5C 159.833,50.5 161.167,50.5 162.5,50.5C 162.5,46.8333 162.5,43.1667 162.5,39.5C 164.467,39.2606 166.301,39.5939 168,40.5C 168.828,44.8713 168.661,49.2047 167.5,53.5C 165.886,45.6019 164.886,45.6019 164.5,53.5C 161.833,53.5 159.167,53.5 156.5,53.5C 156.5,48.8333 156.5,44.1667 156.5,39.5 Z"/></g>
<g><path style="opacity:1" fill="#404040" d="M 164.5,41.5 C 165.586,41.62 166.253,42.2867 166.5,43.5C 166.167,44.1667 165.833,44.8333 165.5,45.5C 164.571,44.3112 164.238,42.9778 164.5,41.5 Z"/></g>
<g><path style="opacity:1" fill="#0e8f53" d="M 47.5,52.5 C 48.7079,53.2341 50.0413,53.5674 51.5,53.5C 52.5498,53.9046 52.5498,54.5712 51.5,55.5C 50.3984,56.1757 49.3984,56.8423 48.5,57.5C 48.5,57.8333 48.5,58.1667 48.5,58.5C 47.183,78.0179 47.3497,97.6845 49,117.5C 49.4328,121.324 50.5994,124.657 52.5,127.5C 53.3382,127.842 53.6716,128.508 53.5,129.5C 52.0748,132.723 52.4081,135.89 54.5,139C 53.1667,139.667 51.8333,139.667 50.5,139C 49.2685,136.834 48.2685,134.667 47.5,132.5C 46.6184,130.616 45.1184,129.283 43,128.5C 42.7216,129.416 42.2216,130.082 41.5,130.5C 41.9153,128.052 40.9153,126.719 38.5,126.5C 36.8953,127.43 35.3953,127.43 34,126.5C 33.5304,127.577 33.6971,128.577 34.5,129.5C 33.9616,133.568 33.6282,137.901 33.5,142.5C 32.5,142.5 31.5,142.5 30.5,142.5C 31.0567,138.355 30.0567,134.689 27.5,131.5C 27.9867,130.554 28.3201,129.554 28.5,128.5C 27.5406,122.865 26.8739,117.199 26.5,111.5C 25.5,111.5 24.5,111.5 23.5,111.5C 23.7845,109.585 23.4511,107.919 22.5,106.5C 21.5872,80.5138 21.2538,54.5138 21.5,28.5C 23.7578,27.5527 24.9245,28.5527 25,31.5C 25.4437,37.1104 24.9437,42.6104 23.5,48C 24.1029,49.8254 24.7696,51.6587 25.5,53.5C 27.7534,54.2531 29.5867,55.5864 31,57.5C 36.4355,55.6963 41.9355,54.0297 47.5,52.5 Z"/></g>
<g><path style="opacity:1" fill="#2e825d" d="M 108.5,19.5 C 108.5,23.5 108.5,27.5 108.5,31.5C 109.5,31.5 110.5,31.5 111.5,31.5C 111.5,37.8333 111.5,44.1667 111.5,50.5C 110.5,50.5 109.5,50.5 108.5,50.5C 108.823,46.774 108.489,43.1073 107.5,39.5C 106.507,44.1196 106.173,48.7863 106.5,53.5C 108.167,53.5 109.833,53.5 111.5,53.5C 111.5,54.1667 111.5,54.8333 111.5,55.5C 111.5,56.1667 111.5,56.8333 111.5,57.5C 90.5,57.5 69.5,57.5 48.5,57.5C 49.3984,56.8423 50.3984,56.1757 51.5,55.5C 52.5498,54.5712 52.5498,53.9046 51.5,53.5C 52.172,52.7326 53.0053,52.0659 54,51.5C 55.5158,54.0515 56.3491,53.7181 56.5,50.5C 57.5,50.5 58.5,50.5 59.5,50.5C 59.5,51.5 59.5,52.5 59.5,53.5C 62.1667,53.5 64.8333,53.5 67.5,53.5C 67.5,52.5 67.5,51.5 67.5,50.5C 66.5,50.5 65.5,50.5 64.5,50.5C 64.5,47.1667 64.5,43.8333 64.5,40.5C 65.8333,40.8333 67.1667,41.1667 68.5,41.5C 68.3347,45.1817 68.5014,48.8484 69,52.5C 70.6667,53.1667 72.3333,53.8333 74,54.5C 74.499,50.1794 74.6657,45.8461 74.5,41.5C 74.8417,40.6618 75.5084,40.3284 76.5,40.5C 76.5429,43.8674 76.2096,47.2008 75.5,50.5C 75.8333,51.5 76.1667,52.5 76.5,53.5C 77.9965,49.6646 78.9965,49.6646 79.5,53.5C 80.5,53.5 81.5,53.5 82.5,53.5C 81.617,48.8683 80.9504,44.2016 80.5,39.5C 80.8333,39.5 81.1667,39.5 81.5,39.5C 82.6491,39.7911 83.3158,40.6244 83.5,42C 83.472,43.0698 83.1386,43.9032 82.5,44.5C 82.5,45.5 82.5,46.5 82.5,47.5C 83.5,47.5 84.5,47.5 85.5,47.5C 85.1107,44.4467 85.7773,41.78 87.5,39.5C 90.9377,38.3138 94.6044,37.6472 98.5,37.5C 102.193,38.3913 105.86,38.7246 109.5,38.5C 110.466,36.604 110.799,34.604 110.5,32.5C 109.041,32.5674 107.708,32.2341 106.5,31.5C 106.5,30.5 106.5,29.5 106.5,28.5C 104.876,28.6399 103.71,27.9733 103,26.5C 101.991,28.0249 101.491,29.6916 101.5,31.5C 100.833,31.5 100.167,31.5 99.5,31.5C 99.5,28.5 99.5,25.5 99.5,22.5C 100.815,23.4756 102.148,24.4756 103.5,25.5C 104.72,24.2889 105.887,24.2889 107,25.5C 107.191,23.2922 107.691,21.2922 108.5,19.5 Z"/></g>
<g><path style="opacity:1" fill="#c1e9dd" d="M 93.5,39.5 C 95.1667,39.5 96.8333,39.5 98.5,39.5C 98.5,42.1667 98.5,44.8333 98.5,47.5C 97.5,47.5 96.5,47.5 95.5,47.5C 94.6981,48.9516 94.1981,50.6183 94,52.5C 93.501,48.1794 93.3343,43.8461 93.5,39.5 Z"/></g>
<g><path style="opacity:1" fill="#caf6e6" d="M 99.5,39.5 C 104.675,38.5071 106.509,40.5071 105,45.5C 104.29,46.9733 103.124,47.6399 101.5,47.5C 101.799,49.604 101.466,51.604 100.5,53.5C 99.5067,48.8804 99.1734,44.2137 99.5,39.5 Z"/></g>
<g><path style="opacity:1" fill="#b4e3d4" d="M 87.5,39.5 C 88.5,39.5 89.5,39.5 90.5,39.5C 90.933,42.1656 91.433,44.8323 92,47.5C 92.1829,44.6353 92.6829,41.9686 93.5,39.5C 93.3343,43.8461 93.501,48.1794 94,52.5C 94.1981,50.6183 94.6981,48.9516 95.5,47.5C 95.5,49.5 95.5,51.5 95.5,53.5C 93.8333,53.5 92.1667,53.5 90.5,53.5C 90.5,52.5 90.5,51.5 90.5,50.5C 89.5,50.5 88.5,50.5 87.5,50.5C 87.1009,53.9877 86.4342,54.1544 85.5,51C 86.2227,47.1632 86.8894,43.3299 87.5,39.5 Z"/></g>
<g><path style="opacity:1" fill="#3c6b59" d="M 70.5,41.5 C 71.7647,42.5145 72.4313,44.0145 72.5,46C 72.1667,47.5 71.8333,49 71.5,50.5C 70.5159,47.5719 70.1826,44.5719 70.5,41.5 Z"/></g>
<g><path style="opacity:1" fill="#5a7c6f" d="M 101.5,41.5 C 102.586,41.62 103.253,42.2867 103.5,43.5C 103.167,44.1667 102.833,44.8333 102.5,45.5C 101.571,44.3112 101.238,42.9778 101.5,41.5 Z"/></g>
<g><path style="opacity:1" fill="#90e9c8" d="M 81.5,39.5 C 82.6491,39.7911 83.3158,40.6244 83.5,42C 83.472,43.0698 83.1386,43.9032 82.5,44.5C 81.6993,42.9582 81.366,41.2915 81.5,39.5 Z"/></g>
<g><path style="opacity:1" fill="#bcf5e0" d="M 106.5,31.5 C 104.833,31.5 103.167,31.5 101.5,31.5C 101.491,29.6916 101.991,28.0249 103,26.5C 103.71,27.9733 104.876,28.6399 106.5,28.5C 106.5,29.5 106.5,30.5 106.5,31.5 Z"/></g>
<g><path style="opacity:1" fill="#f9f8f4" d="M 111.5,57.5 C 131.5,57.5 151.5,57.5 171.5,57.5C 159.561,63.4696 147.561,69.4696 135.5,75.5C 133.302,73.9019 130.969,72.5686 128.5,71.5C 125.966,71.7409 124.3,70.7409 123.5,68.5C 125.719,69.8796 127.719,69.5463 129.5,67.5C 129.127,65.5653 129.793,63.732 131.5,62C 131.167,61.5 130.833,61 130.5,60.5C 124.227,59.5404 117.893,59.2071 111.5,59.5C 111.5,61.5 111.5,63.5 111.5,65.5C 111.5,67.5 111.5,69.5 111.5,71.5C 108.935,75.2971 106.935,79.2971 105.5,83.5C 103.378,79.7742 101.544,75.7742 100,71.5C 96.9457,69.6337 95.4457,66.967 95.5,63.5C 95.5,61.8333 95.5,60.1667 95.5,58.5C 101.026,58.8214 106.36,58.4881 111.5,57.5 Z"/></g>
<g><path style="opacity:1" fill="#fbfcf9" d="M 75.5,59.5 C 76.9536,62.3999 75.9536,63.7332 72.5,63.5C 72.6338,69.4034 74.6338,74.5701 78.5,79C 77.8333,79.3333 77.1667,79.6667 76.5,80C 79.308,80.9932 82.1413,81.8266 85,82.5C 84.5685,85.3243 85.0685,88.1576 86.5,91C 84.8333,91.6667 83.1667,91.6667 81.5,91C 81.273,89.8647 80.9396,88.698 80.5,87.5C 77.0571,88.0665 74.0571,86.8998 71.5,84C 67.7909,83.3667 64.2909,82.2001 61,80.5C 57.0366,88.951 55.7033,97.6177 57,106.5C 59,107.833 61,109.167 63,110.5C 68.0925,109.69 73.0925,109.69 78,110.5C 79.8484,113.041 82.3484,114.041 85.5,113.5C 86.5,113.5 87.5,113.5 88.5,113.5C 88.5,114.5 88.5,115.5 88.5,116.5C 82.1707,118.67 75.504,120.17 68.5,121C 64.5825,124.328 63.0825,128.495 64,133.5C 65.6079,136.382 66.9413,139.382 68,142.5C 71.73,143.46 75.5633,143.793 79.5,143.5C 79.5,142.167 79.5,140.833 79.5,139.5C 82.967,139.554 85.6337,138.054 87.5,135C 86.944,134.617 86.6107,134.117 86.5,133.5C 87.1667,133.167 87.8333,132.833 88.5,132.5C 89.1667,132.5 89.8333,132.5 90.5,132.5C 94.8524,132.154 98.5191,130.488 101.5,127.5C 102.239,127.369 102.906,127.536 103.5,128C 102.531,131.132 101.198,133.966 99.5,136.5C 98.8826,136.611 98.3826,136.944 98,137.5C 97.0524,141.168 96.219,144.835 95.5,148.5C 83.4498,148.793 71.4498,148.459 59.5,147.5C 58.4336,145.299 57.767,142.965 57.5,140.5C 50.7241,113.914 48.7241,86.9142 51.5,59.5C 59.5455,59.9827 67.5455,59.9827 75.5,59.5 Z"/></g>
<g><path style="opacity:1" fill="#f9f8c8" d="M 123.5,68.5 C 120.032,65.8856 116.032,64.8856 111.5,65.5C 111.5,63.5 111.5,61.5 111.5,59.5C 117.893,59.2071 124.227,59.5404 130.5,60.5C 130.833,61 131.167,61.5 131.5,62C 129.793,63.732 129.127,65.5653 129.5,67.5C 127.719,69.5463 125.719,69.8796 123.5,68.5 Z"/></g>
<g><path style="opacity:1" fill="#6e4943" d="M 171.5,57.5 C 172.5,57.5 173.5,57.5 174.5,57.5C 174.5,69.1667 174.5,80.8333 174.5,92.5C 171.14,92.6159 167.807,92.9492 164.5,93.5C 166.756,92.3263 169.423,90.993 172.5,89.5C 172.5,80.1667 172.5,70.8333 172.5,61.5C 170.585,61.2155 168.919,61.5489 167.5,62.5C 164.086,64.3663 160.42,65.8663 156.5,67C 155.619,67.7083 154.953,68.5416 154.5,69.5C 149.65,69.9249 145.65,71.9249 142.5,75.5C 140.184,76.1599 137.851,76.8266 135.5,77.5C 133.004,76.1115 130.337,75.1115 127.5,74.5C 127.5,74.1667 127.5,73.8333 127.5,73.5C 127.833,72.8333 128.167,72.1667 128.5,71.5C 130.969,72.5686 133.302,73.9019 135.5,75.5C 147.561,69.4696 159.561,63.4696 171.5,57.5 Z"/></g>
<g><path style="opacity:1" fill="#f8fcdb" d="M 85.5,58.5 C 88.8333,58.5 92.1667,58.5 95.5,58.5C 95.5,60.1667 95.5,61.8333 95.5,63.5C 93.0475,61.7912 90.3809,60.9578 87.5,61C 88.6721,61.4186 89.6721,62.0853 90.5,63C 87.4143,63.9119 84.4143,65.0786 81.5,66.5C 80.3691,68.0745 80.2025,69.7412 81,71.5C 82.6091,74.4068 84.4424,77.0734 86.5,79.5C 87.5,79.8333 88.1667,80.5 88.5,81.5C 88.1667,81.5 87.8333,81.5 87.5,81.5C 84.5669,80.236 82.2335,78.236 80.5,75.5C 79.1678,72.1768 77.8345,68.8435 76.5,65.5C 77.714,63.9309 79.3807,63.0976 81.5,63C 83.1247,62.1475 83.4581,61.1475 82.5,60C 83.7375,59.7679 84.7375,59.2679 85.5,58.5 Z"/></g>
<g><path style="opacity:1" fill="#f9fbc9" d="M 95.5,63.5 C 95.4457,66.967 96.9457,69.6337 100,71.5C 101.544,75.7742 103.378,79.7742 105.5,83.5C 105.5,85.1667 105.5,86.8333 105.5,88.5C 105.167,88.5 104.833,88.5 104.5,88.5C 104.027,87.0937 103.027,86.427 101.5,86.5C 101.167,85.8333 100.833,85.1667 100.5,84.5C 102.49,76.6157 99.323,71.9491 91,70.5C 89.7753,70.8623 88.6086,71.3623 87.5,72C 86.565,74.3806 86.2317,76.8806 86.5,79.5C 84.4424,77.0734 82.6091,74.4068 81,71.5C 80.2025,69.7412 80.3691,68.0745 81.5,66.5C 84.4143,65.0786 87.4143,63.9119 90.5,63C 89.6721,62.0853 88.6721,61.4186 87.5,61C 90.3809,60.9578 93.0475,61.7912 95.5,63.5 Z"/></g>
<g><path style="opacity:1" fill="#4f6a4a" d="M 167.5,62.5 C 168.919,61.5489 170.585,61.2155 172.5,61.5C 172.5,70.8333 172.5,80.1667 172.5,89.5C 172.167,89.5 171.833,89.5 171.5,89.5C 171.5,80.5 171.5,71.5 171.5,62.5C 170.167,62.5 168.833,62.5 167.5,62.5 Z"/></g>
<g><path style="opacity:1" fill="#d2f8e8" d="M 48.5,57.5 C 69.5,57.5 90.5,57.5 111.5,57.5C 106.36,58.4881 101.026,58.8214 95.5,58.5C 92.1667,58.5 88.8333,58.5 85.5,58.5C 81.9581,58.1872 78.6248,58.5206 75.5,59.5C 67.5455,59.9827 59.5455,59.9827 51.5,59.5C 48.7241,86.9142 50.7241,113.914 57.5,140.5C 55.4155,137.199 54.0822,133.532 53.5,129.5C 53.6716,128.508 53.3382,127.842 52.5,127.5C 48.8582,104.662 47.5248,81.6623 48.5,58.5C 48.5,58.1667 48.5,57.8333 48.5,57.5 Z"/></g>
<g><path style="opacity:1" fill="#3d7e49" d="M 167.5,62.5 C 168.833,62.5 170.167,62.5 171.5,62.5C 171.5,71.5 171.5,80.5 171.5,89.5C 162.404,92.572 153.07,94.572 143.5,95.5C 144.23,93.955 145.563,93.1216 147.5,93C 154.861,91.6873 162.194,90.5206 169.5,89.5C 170.185,81.1844 170.518,72.851 170.5,64.5C 168.801,64.3398 167.134,64.5065 165.5,65C 161.933,66.8087 158.266,68.3087 154.5,69.5C 154.953,68.5416 155.619,67.7083 156.5,67C 160.42,65.8663 164.086,64.3663 167.5,62.5 Z"/></g>
<g><path style="opacity:1" fill="#704a2d" d="M 111.5,65.5 C 116.032,64.8856 120.032,65.8856 123.5,68.5C 124.3,70.7409 125.966,71.7409 128.5,71.5C 128.167,72.1667 127.833,72.8333 127.5,73.5C 123.825,73.4997 121.159,71.833 119.5,68.5C 117.735,67.5386 115.735,67.2053 113.5,67.5C 113.843,69.4832 113.176,70.8166 111.5,71.5C 111.5,69.5 111.5,67.5 111.5,65.5 Z"/></g>
<g><path style="opacity:1" fill="#3a0b0f" d="M 171.5,57.5 C 172.568,56.5655 173.901,56.2322 175.5,56.5C 175.828,68.6783 175.495,80.6783 174.5,92.5C 174.5,80.8333 174.5,69.1667 174.5,57.5C 173.5,57.5 172.5,57.5 171.5,57.5 Z"/></g>
<g><path style="opacity:1" fill="#4e6f4a" d="M 154.5,69.5 C 150.787,72.0234 146.787,74.0234 142.5,75.5C 145.65,71.9249 149.65,69.9249 154.5,69.5 Z"/></g>
<g><path style="opacity:1" fill="#f3fa9e" d="M 100.5,84.5 C 96.7159,82.684 92.7159,81.684 88.5,81.5C 88.1667,80.5 87.5,79.8333 86.5,79.5C 86.2317,76.8806 86.565,74.3806 87.5,72C 88.6086,71.3623 89.7753,70.8623 91,70.5C 99.323,71.9491 102.49,76.6157 100.5,84.5 Z"/></g>
<g><path style="opacity:1" fill="#1e7750" d="M 48.5,58.5 C 47.5248,81.6623 48.8582,104.662 52.5,127.5C 50.5994,124.657 49.4328,121.324 49,117.5C 47.3497,97.6845 47.183,78.0179 48.5,58.5 Z"/></g>
<g><path style="opacity:1" fill="#686955" d="M 119.5,68.5 C 116.05,67.7564 114.384,69.0897 114.5,72.5C 113.957,72.56 113.624,72.8933 113.5,73.5C 114.63,74.6223 115.297,75.9557 115.5,77.5C 114.608,82.4376 114.274,87.4376 114.5,92.5C 114.5,93.1667 114.167,93.5 113.5,93.5C 113.828,88.1254 113.495,82.7921 112.5,77.5C 111.264,78.2458 109.93,78.5792 108.5,78.5C 107.886,82.1352 107.552,85.8019 107.5,89.5C 106.833,89.1667 106.167,88.8333 105.5,88.5C 105.5,86.8333 105.5,85.1667 105.5,83.5C 106.935,79.2971 108.935,75.2971 111.5,71.5C 113.176,70.8166 113.843,69.4832 113.5,67.5C 115.735,67.2053 117.735,67.5386 119.5,68.5 Z"/></g>
<g><path style="opacity:1" fill="#34844c" d="M 119.5,68.5 C 121.159,71.833 123.825,73.4997 127.5,73.5C 127.5,73.8333 127.5,74.1667 127.5,74.5C 130.337,75.1115 133.004,76.1115 135.5,77.5C 137.851,76.8266 140.184,76.1599 142.5,75.5C 139.285,78.2338 138.952,81.2338 141.5,84.5C 140.32,88.8984 138.32,92.8984 135.5,96.5C 136.668,98.2174 138.335,98.8841 140.5,98.5C 140.5,97.5 140.5,96.5 140.5,95.5C 141.5,95.5 142.5,95.5 143.5,95.5C 143.5,97.5 143.5,99.5 143.5,101.5C 140.539,100.677 137.539,100.01 134.5,99.5C 133.833,99.5 133.167,99.5 132.5,99.5C 134.076,96.0738 135.909,92.7405 138,89.5C 138.818,86.7728 138.652,84.1062 137.5,81.5C 135.568,80.4798 133.568,80.3131 131.5,81C 128.006,82.5795 124.673,84.4128 121.5,86.5C 120.03,83.2926 118.863,79.9592 118,76.5C 117.34,74.6763 116.173,73.343 114.5,72.5C 114.384,69.0897 116.05,67.7564 119.5,68.5 Z"/></g>
<g><path style="opacity:1" fill="#179748" d="M 127.5,74.5 C 129.459,77.2556 128.959,79.9223 126,82.5C 124.326,80.9907 122.66,80.3241 121,80.5C 119.146,77.2184 118.312,73.885 118.5,70.5C 119.981,71.4803 121.315,72.647 122.5,74C 124.134,74.4935 125.801,74.6602 127.5,74.5 Z"/></g>
<g><path style="opacity:1" fill="#35864b" d="M 115.5,77.5 C 117.966,81.0184 118.966,85.0184 118.5,89.5C 117.167,90.5 115.833,91.5 114.5,92.5C 114.274,87.4376 114.608,82.4376 115.5,77.5 Z"/></g>
<g><path style="opacity:1" fill="#2d8c51" d="M 130.5,98.5 C 127.813,98.6641 125.146,98.4974 122.5,98C 121.577,95.9592 121.244,93.7925 121.5,91.5C 124.53,85.53 129.53,82.8633 136.5,83.5C 135.89,89.0539 133.89,94.0539 130.5,98.5 Z"/></g>
<g><path style="opacity:1" fill="#f9fced" d="M 85.5,58.5 C 84.7375,59.2679 83.7375,59.7679 82.5,60C 83.4581,61.1475 83.1247,62.1475 81.5,63C 79.3807,63.0976 77.714,63.9309 76.5,65.5C 77.8345,68.8435 79.1678,72.1768 80.5,75.5C 82.2335,78.236 84.5669,80.236 87.5,81.5C 87.3359,84.1873 87.5026,86.854 88,89.5C 88.2784,90.4158 88.7784,91.0825 89.5,91.5C 89.5,92.1667 89.5,92.8333 89.5,93.5C 86.4552,93.4921 83.4552,93.1587 80.5,92.5C 79.5475,90.39 77.8808,89.2233 75.5,89C 71.9031,87.7235 68.2364,87.3901 64.5,88C 63.0963,92.8908 61.4296,97.7241 59.5,102.5C 60.0541,104.628 61.3874,106.128 63.5,107C 68.1976,107.351 72.8642,107.851 77.5,108.5C 79.8997,110.694 82.5664,112.361 85.5,113.5C 82.3484,114.041 79.8484,113.041 78,110.5C 73.0925,109.69 68.0925,109.69 63,110.5C 61,109.167 59,107.833 57,106.5C 55.7033,97.6177 57.0366,88.951 61,80.5C 64.2909,82.2001 67.7909,83.3667 71.5,84C 74.0571,86.8998 77.0571,88.0665 80.5,87.5C 80.9396,88.698 81.273,89.8647 81.5,91C 83.1667,91.6667 84.8333,91.6667 86.5,91C 85.0685,88.1576 84.5685,85.3243 85,82.5C 82.1413,81.8266 79.308,80.9932 76.5,80C 77.1667,79.6667 77.8333,79.3333 78.5,79C 74.6338,74.5701 72.6338,69.4034 72.5,63.5C 75.9536,63.7332 76.9536,62.3999 75.5,59.5C 78.6248,58.5206 81.9581,58.1872 85.5,58.5 Z"/></g>
<g><path style="opacity:1" fill="#a9f0c2" d="M 114.5,72.5 C 116.173,73.343 117.34,74.6763 118,76.5C 118.863,79.9592 120.03,83.2926 121.5,86.5C 124.673,84.4128 128.006,82.5795 131.5,81C 133.568,80.3131 135.568,80.4798 137.5,81.5C 138.652,84.1062 138.818,86.7728 138,89.5C 135.909,92.7405 134.076,96.0738 132.5,99.5C 131.833,99.1667 131.167,98.8333 130.5,98.5C 133.89,94.0539 135.89,89.0539 136.5,83.5C 129.53,82.8633 124.53,85.53 121.5,91.5C 120.778,90.4489 119.778,89.7822 118.5,89.5C 118.966,85.0184 117.966,81.0184 115.5,77.5C 115.297,75.9557 114.63,74.6223 113.5,73.5C 113.624,72.8933 113.957,72.56 114.5,72.5 Z"/></g>
<g><path style="opacity:1" fill="#6e6645" d="M 87.5,81.5 C 87.8333,81.5 88.1667,81.5 88.5,81.5C 92.7159,81.684 96.7159,82.684 100.5,84.5C 100.833,85.1667 101.167,85.8333 101.5,86.5C 99.5,86.1667 97.5,85.8333 95.5,85.5C 94.0101,83.7202 92.0101,83.0535 89.5,83.5C 89.5,86.1667 89.5,88.8333 89.5,91.5C 88.7784,91.0825 88.2784,90.4158 88,89.5C 87.5026,86.854 87.3359,84.1873 87.5,81.5 Z"/></g>
<g><path style="opacity:1" fill="#803b40" d="M 113.5,93.5 C 112.833,93.5 112.167,93.5 111.5,93.5C 110.473,91.8058 109.139,90.4725 107.5,89.5C 107.552,85.8019 107.886,82.1352 108.5,78.5C 109.93,78.5792 111.264,78.2458 112.5,77.5C 113.495,82.7921 113.828,88.1254 113.5,93.5 Z"/></g>
<g><path style="opacity:1" fill="#a22737" d="M 109.5,79.5 C 110.5,79.5 111.5,79.5 112.5,79.5C 111.418,94.084 110.418,94.084 109.5,79.5 Z"/></g>
<g><path style="opacity:1" fill="#139643" d="M 143.5,95.5 C 142.5,95.5 141.5,95.5 140.5,95.5C 140.5,96.5 140.5,97.5 140.5,98.5C 138.335,98.8841 136.668,98.2174 135.5,96.5C 138.32,92.8984 140.32,88.8984 141.5,84.5C 138.952,81.2338 139.285,78.2338 142.5,75.5C 146.787,74.0234 150.787,72.0234 154.5,69.5C 158.266,68.3087 161.933,66.8087 165.5,65C 167.134,64.5065 168.801,64.3398 170.5,64.5C 170.518,72.851 170.185,81.1844 169.5,89.5C 162.194,90.5206 154.861,91.6873 147.5,93C 145.563,93.1216 144.23,93.955 143.5,95.5 Z"/></g>
<g><path style="opacity:1" fill="#139646" d="M 127.5,86.5 C 129.5,86.5 131.5,86.5 133.5,86.5C 133.66,88.1992 133.494,89.8659 133,91.5C 132.667,91.1667 132.333,90.8333 132,90.5C 131.539,93.7754 129.873,96.1087 127,97.5C 124.942,96.9422 123.775,95.6089 123.5,93.5C 124.823,91.1729 126.157,88.8396 127.5,86.5 Z"/></g>
<g><path style="opacity:1" fill="#f7fbbb" d="M 80.5,92.5 C 83.4552,93.1587 86.4552,93.4921 89.5,93.5C 90.9387,95.3603 92.6053,97.027 94.5,98.5C 94.5,98.8333 94.5,99.1667 94.5,99.5C 92.8333,99.5 91.1667,99.5 89.5,99.5C 88.2617,99.19 88.2617,98.69 89.5,98C 86.71,97.4391 84.3766,96.1058 82.5,94C 79.1832,93.5017 75.8499,93.335 72.5,93.5C 73.2911,96.4168 73.2911,99.2501 72.5,102C 73.2191,104.556 74.8858,105.723 77.5,105.5C 77.5,105.833 77.5,106.167 77.5,106.5C 74.5198,106.38 71.6865,105.713 69,104.5C 69.204,99.9077 69.0373,95.241 68.5,90.5C 72.6699,90.3331 76.6699,90.9997 80.5,92.5 Z"/></g>
<g><path style="opacity:1" fill="#fcfccf" d="M 80.5,92.5 C 76.6699,90.9997 72.6699,90.3331 68.5,90.5C 69.0373,95.241 69.204,99.9077 69,104.5C 71.6865,105.713 74.5198,106.38 77.5,106.5C 77.5,107.167 77.5,107.833 77.5,108.5C 72.8642,107.851 68.1976,107.351 63.5,107C 61.3874,106.128 60.0541,104.628 59.5,102.5C 61.4296,97.7241 63.0963,92.8908 64.5,88C 68.2364,87.3901 71.9031,87.7235 75.5,89C 77.8808,89.2233 79.5475,90.39 80.5,92.5 Z"/></g>
<g><path style="opacity:1" fill="#f4fa9d" d="M 89.5,99.5 C 85.0779,100.537 81.0779,102.537 77.5,105.5C 74.8858,105.723 73.2191,104.556 72.5,102C 73.2911,99.2501 73.2911,96.4168 72.5,93.5C 75.8499,93.335 79.1832,93.5017 82.5,94C 84.3766,96.1058 86.71,97.4391 89.5,98C 88.2617,98.69 88.2617,99.19 89.5,99.5 Z"/></g>
<g><path style="opacity:1" fill="#933d3e" d="M 95.5,85.5 C 97.5,85.8333 99.5,86.1667 101.5,86.5C 103.027,86.427 104.027,87.0937 104.5,88.5C 104.492,91.5448 104.159,94.5448 103.5,97.5C 100.482,97.7038 97.4824,98.0371 94.5,98.5C 92.6053,97.027 90.9387,95.3603 89.5,93.5C 89.5,92.8333 89.5,92.1667 89.5,91.5C 89.5,88.8333 89.5,86.1667 89.5,83.5C 92.0101,83.0535 94.0101,83.7202 95.5,85.5 Z"/></g>
<g><path style="opacity:1" fill="#cc173c" d="M 95.5,85.5 C 97.7665,86.9201 99.9331,88.5868 102,90.5C 102.865,95.67 100.699,97.5034 95.5,96C 92.4439,92.7539 90.7773,88.9205 90.5,84.5C 92.2161,84.6287 93.8828,84.962 95.5,85.5 Z"/></g>
<g><path style="opacity:1" fill="#fce7cd" d="M 104.5,88.5 C 104.833,88.5 105.167,88.5 105.5,88.5C 106.167,88.8333 106.833,89.1667 107.5,89.5C 109.139,90.4725 110.473,91.8058 111.5,93.5C 109.516,93.6168 107.85,92.9501 106.5,91.5C 105.673,95.4592 105.173,99.4592 105,103.5C 103.416,102.139 101.582,101.472 99.5,101.5C 99.7036,103.685 100.37,105.685 101.5,107.5C 101.167,107.5 100.833,107.5 100.5,107.5C 100.167,107.5 99.8333,107.5 99.5,107.5C 98.5806,104.911 96.914,102.911 94.5,101.5C 94.5,100.833 94.5,100.167 94.5,99.5C 94.5,99.1667 94.5,98.8333 94.5,98.5C 97.4824,98.0371 100.482,97.7038 103.5,97.5C 104.159,94.5448 104.492,91.5448 104.5,88.5 Z"/></g>
<g><path style="opacity:1" fill="#cf1637" d="M 84.5,103.5 C 88.1817,103.335 91.8484,103.501 95.5,104C 96.5742,104.739 97.2409,105.739 97.5,107C 96.2927,108.3 95.6261,109.8 95.5,111.5C 93.5,111.5 91.5,111.5 89.5,111.5C 88.0425,109.989 86.2092,108.989 84,108.5C 83.3603,106.735 83.5269,105.068 84.5,103.5 Z"/></g>
<g><path style="opacity:1" fill="#f7facd" d="M 118.5,89.5 C 119.778,89.7822 120.778,90.4489 121.5,91.5C 121.244,93.7925 121.577,95.9592 122.5,98C 125.146,98.4974 127.813,98.6641 130.5,98.5C 131.167,98.8333 131.833,99.1667 132.5,99.5C 133.167,99.5 133.833,99.5 134.5,99.5C 133.167,100.167 131.833,100.833 130.5,101.5C 130.167,102.167 129.833,102.833 129.5,103.5C 128.5,103.833 127.833,104.5 127.5,105.5C 124.61,105.473 123.61,104.307 124.5,102C 124,101.833 123.5,101.667 123,101.5C 121.351,102.786 120.185,104.453 119.5,106.5C 117.093,108.089 114.593,109.422 112,110.5C 108.71,107.975 105.21,106.975 101.5,107.5C 100.37,105.685 99.7036,103.685 99.5,101.5C 101.582,101.472 103.416,102.139 105,103.5C 105.173,99.4592 105.673,95.4592 106.5,91.5C 107.85,92.9501 109.516,93.6168 111.5,93.5C 112.167,93.5 112.833,93.5 113.5,93.5C 114.167,93.5 114.5,93.1667 114.5,92.5C 115.833,91.5 117.167,90.5 118.5,89.5 Z"/></g>
<g><path style="opacity:1" fill="#f5f8ab" d="M 106.5,95.5 C 110.5,95.5 114.5,95.5 118.5,95.5C 117.264,103.611 113.431,105.277 107,100.5C 106.506,98.8659 106.34,97.1992 106.5,95.5 Z"/></g>
<g><path style="opacity:0.047" fill="#c0e8d7" d="M 20.5,98.5 C 21.1667,101.167 21.8333,103.833 22.5,106.5C 22.6686,111.181 23.0019,115.848 23.5,120.5C 21.3984,113.45 20.3984,106.117 20.5,98.5 Z"/></g>
<g><path style="opacity:1" fill="#98333a" d="M 84.5,103.5 C 83.5269,105.068 83.3603,106.735 84,108.5C 86.2092,108.989 88.0425,109.989 89.5,111.5C 86.6937,111.178 84.1937,110.178 82,108.5C 80.9231,105.738 81.7564,104.072 84.5,103.5 Z"/></g>
<g><path style="opacity:1" fill="#298a4c" d="M 130.5,101.5 C 135.618,100.889 140.285,102.056 144.5,105C 145.654,109.026 143.987,110.859 139.5,110.5C 140.141,109.518 140.807,108.518 141.5,107.5C 139.833,106.333 138.167,105.167 136.5,104C 133.873,103.731 131.54,103.564 129.5,103.5C 129.833,102.833 130.167,102.167 130.5,101.5 Z"/></g>
<g><path style="opacity:1" fill="#21933f" d="M 129.5,103.5 C 131.54,103.564 133.873,103.731 136.5,104C 138.167,105.167 139.833,106.333 141.5,107.5C 140.807,108.518 140.141,109.518 139.5,110.5C 136.877,112.265 133.877,112.932 130.5,112.5C 129.19,110.852 127.857,109.186 126.5,107.5C 126.863,106.817 127.196,106.15 127.5,105.5C 127.833,104.5 128.5,103.833 129.5,103.5 Z"/></g>
<g><path style="opacity:1" fill="#a0392c" d="M 94.5,101.5 C 96.914,102.911 98.5806,104.911 99.5,107.5C 98.5,109.167 97.1667,110.5 95.5,111.5C 95.6261,109.8 96.2927,108.3 97.5,107C 97.2409,105.739 96.5742,104.739 95.5,104C 91.8484,103.501 88.1817,103.335 84.5,103.5C 84.9175,102.778 85.5842,102.278 86.5,102C 89.146,101.503 91.8127,101.336 94.5,101.5 Z"/></g>
<g><path style="opacity:1" fill="#715f43" d="M 89.5,99.5 C 91.1667,99.5 92.8333,99.5 94.5,99.5C 94.5,100.167 94.5,100.833 94.5,101.5C 91.8127,101.336 89.146,101.503 86.5,102C 85.5842,102.278 84.9175,102.778 84.5,103.5C 81.7564,104.072 80.9231,105.738 82,108.5C 84.1937,110.178 86.6937,111.178 89.5,111.5C 91.5,111.5 93.5,111.5 95.5,111.5C 94.8333,112.5 94.1667,113.5 93.5,114.5C 92.8333,114.5 92.1667,114.5 91.5,114.5C 90.609,113.89 89.609,113.557 88.5,113.5C 87.5,113.5 86.5,113.5 85.5,113.5C 82.5664,112.361 79.8997,110.694 77.5,108.5C 77.5,107.833 77.5,107.167 77.5,106.5C 77.5,106.167 77.5,105.833 77.5,105.5C 81.0779,102.537 85.0779,100.537 89.5,99.5 Z"/></g>
<g><path style="opacity:1" fill="#fbeb7d" d="M 108.5,111.5 C 105.478,114.638 104.811,118.305 106.5,122.5C 107.85,121.05 109.516,120.383 111.5,120.5C 111.5,120.833 111.5,121.167 111.5,121.5C 109.596,121.738 108.262,122.738 107.5,124.5C 106.833,124.833 106.167,125.167 105.5,125.5C 105.167,125.5 104.833,125.5 104.5,125.5C 104.5,123.833 104.5,122.167 104.5,120.5C 105.86,115.25 103.86,112.583 98.5,112.5C 98.6236,111.893 98.9569,111.56 99.5,111.5C 100.915,110.711 102.415,110.044 104,109.5C 105.406,110.414 106.906,111.08 108.5,111.5 Z"/></g>
<g><path style="opacity:1" fill="#fad78b" d="M 99.5,107.5 C 99.8333,107.5 100.167,107.5 100.5,107.5C 100.167,108.833 99.8333,110.167 99.5,111.5C 98.9569,111.56 98.6236,111.893 98.5,112.5C 103.86,112.583 105.86,115.25 104.5,120.5C 104.167,120.5 103.833,120.5 103.5,120.5C 103.5,118.833 103.5,117.167 103.5,115.5C 100.5,115.5 97.5,115.5 94.5,115.5C 94.1667,115.5 93.8333,115.5 93.5,115.5C 93.5,115.167 93.5,114.833 93.5,114.5C 94.1667,113.5 94.8333,112.5 95.5,111.5C 97.1667,110.5 98.5,109.167 99.5,107.5 Z"/></g>
<g><path style="opacity:1" fill="#f0f999" d="M 127.5,105.5 C 127.196,106.15 126.863,106.817 126.5,107.5C 127.857,109.186 129.19,110.852 130.5,112.5C 129.89,113.391 129.557,114.391 129.5,115.5C 129.167,115.5 128.833,115.5 128.5,115.5C 126.05,115.298 123.717,115.631 121.5,116.5C 121.007,114.743 120.673,112.909 120.5,111C 118.243,110.888 116.076,111.388 114,112.5C 112.175,112.057 110.342,111.723 108.5,111.5C 106.906,111.08 105.406,110.414 104,109.5C 102.415,110.044 100.915,110.711 99.5,111.5C 99.8333,110.167 100.167,108.833 100.5,107.5C 100.833,107.5 101.167,107.5 101.5,107.5C 105.21,106.975 108.71,107.975 112,110.5C 114.593,109.422 117.093,108.089 119.5,106.5C 120.185,104.453 121.351,102.786 123,101.5C 123.5,101.667 124,101.833 124.5,102C 123.61,104.307 124.61,105.473 127.5,105.5 Z"/></g>
<g><path style="opacity:1" fill="#edf660" d="M 121.5,116.5 C 121.5,118.833 121.5,121.167 121.5,123.5C 121.5,123.833 121.5,124.167 121.5,124.5C 120.5,125.167 119.5,125.833 118.5,126.5C 117.856,123.856 116.189,122.189 113.5,121.5C 113.158,120.662 112.492,120.328 111.5,120.5C 109.516,120.383 107.85,121.05 106.5,122.5C 104.811,118.305 105.478,114.638 108.5,111.5C 110.342,111.723 112.175,112.057 114,112.5C 116.076,111.388 118.243,110.888 120.5,111C 120.673,112.909 121.007,114.743 121.5,116.5 Z"/></g>
<g><path style="opacity:1" fill="#ae2a2c" d="M 94.5,115.5 C 97.5,115.5 100.5,115.5 103.5,115.5C 103.5,117.167 103.5,118.833 103.5,120.5C 103.762,121.978 103.429,123.311 102.5,124.5C 100.321,125.757 98.3211,127.257 96.5,129C 94.1902,129.497 91.8568,129.663 89.5,129.5C 89.3379,127.473 89.5045,125.473 90,123.5C 91.7774,120.941 93.2774,118.274 94.5,115.5 Z"/></g>
<g><path style="opacity:1" fill="#159545" d="M 159.5,115.5 C 159.833,115.5 160.167,115.5 160.5,115.5C 161.933,117.558 162.6,119.892 162.5,122.5C 159.09,122.457 155.757,122.957 152.5,124C 150.609,125.442 148.609,126.609 146.5,127.5C 144.989,128.502 143.322,129.169 141.5,129.5C 141.632,125.781 140.965,122.281 139.5,119C 139.354,116.966 140.02,115.299 141.5,114C 144.698,113.152 147.531,111.652 150,109.5C 153.297,111.298 156.464,113.298 159.5,115.5 Z"/></g>
<g><path style="opacity:1" fill="#278749" d="M 128.5,115.5 C 128.833,115.5 129.167,115.5 129.5,115.5C 133.701,119.571 136.034,124.571 136.5,130.5C 130.709,130.437 125.709,128.437 121.5,124.5C 121.5,124.167 121.5,123.833 121.5,123.5C 126.033,123.652 130.366,124.986 134.5,127.5C 132.536,123.52 130.536,119.52 128.5,115.5 Z"/></g>
<g><path style="opacity:1" fill="#676a2c" d="M 93.5,115.5 C 93.8333,115.5 94.1667,115.5 94.5,115.5C 93.2774,118.274 91.7774,120.941 90,123.5C 89.5045,125.473 89.3379,127.473 89.5,129.5C 89.5569,130.609 89.8902,131.609 90.5,132.5C 89.8333,132.5 89.1667,132.5 88.5,132.5C 88.5,131.833 88.1667,131.5 87.5,131.5C 87.2869,125.272 89.2869,119.939 93.5,115.5 Z"/></g>
<g><path style="opacity:1" fill="#22963e" d="M 128.5,115.5 C 130.536,119.52 132.536,123.52 134.5,127.5C 130.366,124.986 126.033,123.652 121.5,123.5C 121.5,121.167 121.5,118.833 121.5,116.5C 123.717,115.631 126.05,115.298 128.5,115.5 Z"/></g>
<g><path style="opacity:1" fill="#497a49" d="M 160.5,115.5 C 163.698,116.854 164.864,119.187 164,122.5C 158.042,123.486 152.542,125.653 147.5,129C 146.432,131.438 145.098,133.605 143.5,135.5C 143.539,132.465 144.539,129.798 146.5,127.5C 148.609,126.609 150.609,125.442 152.5,124C 155.757,122.957 159.09,122.457 162.5,122.5C 162.6,119.892 161.933,117.558 160.5,115.5 Z"/></g>
<g><path style="opacity:1" fill="#d41038" d="M 99.5,118.5 C 100.649,118.791 101.316,119.624 101.5,121C 101.333,121.833 101.167,122.667 101,123.5C 98.8762,124.622 97.0429,126.122 95.5,128C 94.2068,128.49 92.8734,128.657 91.5,128.5C 92.2838,123.711 94.9505,120.377 99.5,118.5 Z"/></g>
<g><path style="opacity:1" fill="#f0f7a0" d="M 91.5,114.5 C 92.1667,114.5 92.8333,114.5 93.5,114.5C 93.5,114.833 93.5,115.167 93.5,115.5C 89.2869,119.939 87.2869,125.272 87.5,131.5C 84.8333,130.167 82.1667,130.167 79.5,131.5C 79.756,129.088 78.756,127.421 76.5,126.5C 78.2779,125.274 79.2779,123.607 79.5,121.5C 82.9267,120.567 86.26,119.4 89.5,118C 90.8228,117.184 91.4894,116.017 91.5,114.5 Z"/></g>
<g><path style="opacity:1" fill="#aef1c5" d="M 134.5,99.5 C 137.539,100.01 140.539,100.677 143.5,101.5C 145.5,102.833 147.167,104.5 148.5,106.5C 148.141,108.371 147.141,109.871 145.5,111C 141.268,112.8 136.934,114.3 132.5,115.5C 136.439,120.15 138.272,125.484 138,131.5C 131.456,133.099 125.789,131.432 121,126.5C 119.793,131.288 118.293,135.955 116.5,140.5C 115.833,140.833 115.167,141.167 114.5,141.5C 113.662,141.158 113.328,140.492 113.5,139.5C 116.517,135.797 118.184,131.464 118.5,126.5C 119.5,125.833 120.5,125.167 121.5,124.5C 125.709,128.437 130.709,130.437 136.5,130.5C 136.034,124.571 133.701,119.571 129.5,115.5C 129.557,114.391 129.89,113.391 130.5,112.5C 133.877,112.932 136.877,112.265 139.5,110.5C 143.987,110.859 145.654,109.026 144.5,105C 140.285,102.056 135.618,100.889 130.5,101.5C 131.833,100.833 133.167,100.167 134.5,99.5 Z"/></g>
<g><path style="opacity:1" fill="#fbfcde" d="M 88.5,113.5 C 89.609,113.557 90.609,113.89 91.5,114.5C 91.4894,116.017 90.8228,117.184 89.5,118C 86.26,119.4 82.9267,120.567 79.5,121.5C 75.4669,122.016 72.3002,124.016 70,127.5C 69.2025,129.259 69.3691,130.926 70.5,132.5C 73.1988,135.297 76.5321,136.964 80.5,137.5C 82.264,135.722 84.264,134.389 86.5,133.5C 86.6107,134.117 86.944,134.617 87.5,135C 85.6337,138.054 82.967,139.554 79.5,139.5C 79.5,140.833 79.5,142.167 79.5,143.5C 75.5633,143.793 71.73,143.46 68,142.5C 66.9413,139.382 65.6079,136.382 64,133.5C 63.0825,128.495 64.5825,124.328 68.5,121C 75.504,120.17 82.1707,118.67 88.5,116.5C 88.5,115.5 88.5,114.5 88.5,113.5 Z"/></g>
<g><path style="opacity:1" fill="#f8f6f3" d="M 174.5,92.5 C 174.498,99.5197 174.165,106.52 173.5,113.5C 171.717,125.303 168.383,136.636 163.5,147.5C 158.552,148.559 153.552,148.726 148.5,148C 148.833,147.667 149.167,147.333 149.5,147C 146.698,144.895 145.365,142.061 145.5,138.5C 147.014,135.308 148.68,132.141 150.5,129C 157.409,127.205 164.076,124.871 170.5,122C 162.47,113.636 154.137,105.636 145.5,98C 151.941,96.4894 158.274,94.9894 164.5,93.5C 167.807,92.9492 171.14,92.6159 174.5,92.5 Z"/></g>
<g><path style="opacity:0.106" fill="#bcf4e4" d="M 41.5,130.5 C 40.8826,130.611 40.3826,130.944 40,131.5C 39.3171,126.342 38.4837,126.342 37.5,131.5C 37.1667,131.5 36.8333,131.5 36.5,131.5C 36.1667,130.5 35.5,129.833 34.5,129.5C 33.6971,128.577 33.5304,127.577 34,126.5C 35.3953,127.43 36.8953,127.43 38.5,126.5C 40.9153,126.719 41.9153,128.052 41.5,130.5 Z"/></g>
<g><path style="opacity:1" fill="#66483b" d="M 171.5,89.5 C 171.833,89.5 172.167,89.5 172.5,89.5C 169.423,90.993 166.756,92.3263 164.5,93.5C 158.274,94.9894 151.941,96.4894 145.5,98C 154.137,105.636 162.47,113.636 170.5,122C 164.076,124.871 157.409,127.205 150.5,129C 148.68,132.141 147.014,135.308 145.5,138.5C 144.31,140.355 142.977,142.188 141.5,144C 132.487,145.502 123.487,147.002 114.5,148.5C 114.912,146.027 113.912,144.694 111.5,144.5C 111.5,143.833 111.5,143.167 111.5,142.5C 112.5,142.5 113.5,142.5 114.5,142.5C 116.237,145.012 118.737,146.012 122,145.5C 128.773,145.146 135.273,143.646 141.5,141C 142.582,139.67 143.249,138.17 143.5,136.5C 143.5,136.167 143.5,135.833 143.5,135.5C 145.098,133.605 146.432,131.438 147.5,129C 152.542,125.653 158.042,123.486 164,122.5C 164.864,119.187 163.698,116.854 160.5,115.5C 160.167,115.5 159.833,115.5 159.5,115.5C 156.755,111.426 153.088,108.426 148.5,106.5C 147.167,104.5 145.5,102.833 143.5,101.5C 143.5,99.5 143.5,97.5 143.5,95.5C 153.07,94.572 162.404,92.572 171.5,89.5 Z"/></g>
<g><path style="opacity:1" fill="#735d4a" d="M 103.5,120.5 C 103.833,120.5 104.167,120.5 104.5,120.5C 104.5,122.167 104.5,123.833 104.5,125.5C 102.973,125.427 101.973,126.094 101.5,127.5C 98.5191,130.488 94.8524,132.154 90.5,132.5C 89.8902,131.609 89.5569,130.609 89.5,129.5C 91.8568,129.663 94.1902,129.497 96.5,129C 98.3211,127.257 100.321,125.757 102.5,124.5C 103.429,123.311 103.762,121.978 103.5,120.5 Z"/></g>
<g><path style="opacity:1" fill="#fbfcbc" d="M 79.5,121.5 C 79.2779,123.607 78.2779,125.274 76.5,126.5C 78.756,127.421 79.756,129.088 79.5,131.5C 82.1667,130.167 84.8333,130.167 87.5,131.5C 88.1667,131.5 88.5,131.833 88.5,132.5C 87.8333,132.833 87.1667,133.167 86.5,133.5C 84.264,134.389 82.264,135.722 80.5,137.5C 76.5321,136.964 73.1988,135.297 70.5,132.5C 69.3691,130.926 69.2025,129.259 70,127.5C 72.3002,124.016 75.4669,122.016 79.5,121.5 Z"/></g>
<g><path style="opacity:0.016" fill="#d7d7d7" d="M 180.5,131.5 C 180.573,133.027 179.906,134.027 178.5,134.5C 178.5,133.833 178.5,133.167 178.5,132.5C 179.167,132.167 179.833,131.833 180.5,131.5 Z"/></g>
<g><path style="opacity:1" fill="#9b312e" d="M 111.5,121.5 C 112.488,126.64 112.821,131.974 112.5,137.5C 111.5,137.5 110.5,137.5 109.5,137.5C 108.354,133.246 107.687,128.913 107.5,124.5C 108.262,122.738 109.596,121.738 111.5,121.5 Z"/></g>
<g><path style="opacity:1" fill="#248c4b" d="M 148.5,106.5 C 153.088,108.426 156.755,111.426 159.5,115.5C 156.464,113.298 153.297,111.298 150,109.5C 147.531,111.652 144.698,113.152 141.5,114C 140.02,115.299 139.354,116.966 139.5,119C 140.965,122.281 141.632,125.781 141.5,129.5C 143.322,129.169 144.989,128.502 146.5,127.5C 144.539,129.798 143.539,132.465 143.5,135.5C 143.5,135.833 143.5,136.167 143.5,136.5C 141.59,137.684 139.924,139.184 138.5,141C 135.456,141.363 132.456,141.863 129.5,142.5C 129.33,141.178 129.663,140.011 130.5,139C 133.235,139.198 135.901,139.031 138.5,138.5C 137.687,137.186 136.687,136.019 135.5,135C 132.615,134.305 129.782,133.472 127,132.5C 124.941,133.618 122.774,134.285 120.5,134.5C 119.486,137.507 118.486,140.507 117.5,143.5C 116.596,142.791 116.263,141.791 116.5,140.5C 118.293,135.955 119.793,131.288 121,126.5C 125.789,131.432 131.456,133.099 138,131.5C 138.272,125.484 136.439,120.15 132.5,115.5C 136.934,114.3 141.268,112.8 145.5,111C 147.141,109.871 148.141,108.371 148.5,106.5 Z"/></g>
<g><path style="opacity:0.145" fill="#b5f1dc" d="M 47.5,132.5 C 45.2685,134.201 42.7685,135.534 40,136.5C 39.3224,138.598 39.4891,140.598 40.5,142.5C 39.7611,142.369 39.0944,142.536 38.5,143C 39.2524,143.671 39.5858,144.504 39.5,145.5C 36.695,142.686 36.0283,139.353 37.5,135.5C 40.1667,134.167 42.8333,132.833 45.5,131.5C 46.1835,131.863 46.8501,132.196 47.5,132.5 Z"/></g>
<g><path style="opacity:1" fill="#3b8147" d="M 113.5,121.5 C 116.189,122.189 117.856,123.856 118.5,126.5C 118.184,131.464 116.517,135.797 113.5,139.5C 113.5,133.5 113.5,127.5 113.5,121.5 Z"/></g>
<g><path style="opacity:1" fill="#119645" d="M 129.5,142.5 C 126.185,143.164 122.852,143.831 119.5,144.5C 118.584,144.457 117.917,144.124 117.5,143.5C 118.486,140.507 119.486,137.507 120.5,134.5C 122.774,134.285 124.941,133.618 127,132.5C 129.782,133.472 132.615,134.305 135.5,135C 136.687,136.019 137.687,137.186 138.5,138.5C 135.901,139.031 133.235,139.198 130.5,139C 129.663,140.011 129.33,141.178 129.5,142.5 Z"/></g>
<g><path style="opacity:0.547" fill="#7c7c7c" d="M 181.5,134.5 C 181.461,136.224 181.794,136.557 182.5,135.5C 183.404,136.209 183.737,137.209 183.5,138.5C 182.272,139.306 181.272,140.306 180.5,141.5C 179.789,139.97 178.789,138.637 177.5,137.5C 179.03,136.789 180.363,135.789 181.5,134.5 Z"/></g>
<g><path style="opacity:1" fill="#6d6338" d="M 111.5,121.5 C 111.5,121.167 111.5,120.833 111.5,120.5C 112.492,120.328 113.158,120.662 113.5,121.5C 113.5,127.5 113.5,133.5 113.5,139.5C 113.328,140.492 113.662,141.158 114.5,141.5C 114.5,141.833 114.5,142.167 114.5,142.5C 113.5,142.5 112.5,142.5 111.5,142.5C 111.5,141.833 111.167,141.5 110.5,141.5C 107.086,136.816 105.42,131.482 105.5,125.5C 106.167,125.167 106.833,124.833 107.5,124.5C 107.687,128.913 108.354,133.246 109.5,137.5C 110.5,137.5 111.5,137.5 112.5,137.5C 112.821,131.974 112.488,126.64 111.5,121.5 Z"/></g>
<g><path style="opacity:1" fill="#eaf39d" d="M 104.5,125.5 C 104.833,125.5 105.167,125.5 105.5,125.5C 105.42,131.482 107.086,136.816 110.5,141.5C 109.778,141.918 109.278,142.584 109,143.5C 107.39,143.87 105.89,143.203 104.5,141.5C 103.15,142.95 101.484,143.617 99.5,143.5C 99.5,141.167 99.5,138.833 99.5,136.5C 101.198,133.966 102.531,131.132 103.5,128C 102.906,127.536 102.239,127.369 101.5,127.5C 101.973,126.094 102.973,125.427 104.5,125.5 Z"/></g>
<g><path style="opacity:0.086" fill="#aeddce" d="M 40.5,142.5 C 43.0444,142.104 45.2111,142.771 47,144.5C 47.3329,146.934 46.1662,147.934 43.5,147.5C 42.0475,146.151 41.0475,144.485 40.5,142.5 Z"/></g>
<g><path style="opacity:1" fill="#258758" d="M 22.5,106.5 C 23.4511,107.919 23.7845,109.585 23.5,111.5C 24.5,111.5 25.5,111.5 26.5,111.5C 26.8739,117.199 27.5406,122.865 28.5,128.5C 28.3201,129.554 27.9867,130.554 27.5,131.5C 30.0567,134.689 31.0567,138.355 30.5,142.5C 31.5,142.5 32.5,142.5 33.5,142.5C 33.6282,137.901 33.9616,133.568 34.5,129.5C 35.5,129.833 36.1667,130.5 36.5,131.5C 36.8333,132.833 37.1667,132.833 37.5,131.5C 38.4837,126.342 39.3171,126.342 40,131.5C 40.3826,130.944 40.8826,130.611 41.5,130.5C 42.2216,130.082 42.7216,129.416 43,128.5C 45.1184,129.283 46.6184,130.616 47.5,132.5C 46.8501,132.196 46.1835,131.863 45.5,131.5C 42.8333,132.833 40.1667,134.167 37.5,135.5C 36.0283,139.353 36.695,142.686 39.5,145.5C 39.5,145.833 39.5,146.167 39.5,146.5C 39.5,147.833 39.5,149.167 39.5,150.5C 40.0946,153.654 40.0946,156.654 39.5,159.5C 38.1667,159.5 36.8333,159.5 35.5,159.5C 34.5592,157.95 33.8925,156.284 33.5,154.5C 33.0598,148.173 31.0598,142.507 27.5,137.5C 25.4068,132.122 24.0735,126.455 23.5,120.5C 23.0019,115.848 22.6686,111.181 22.5,106.5 Z"/></g>
<g><path style="opacity:0.02" fill="#dfdfdf" d="M 183.5,140.5 C 183.253,142.858 183.919,144.858 185.5,146.5C 185.167,146.5 184.833,146.5 184.5,146.5C 183.609,145.89 182.609,145.557 181.5,145.5C 181.796,143.597 182.463,141.93 183.5,140.5 Z"/></g>
<g><path style="opacity:1" fill="#566c47" d="M 143.5,136.5 C 143.249,138.17 142.582,139.67 141.5,141C 135.273,143.646 128.773,145.146 122,145.5C 118.737,146.012 116.237,145.012 114.5,142.5C 114.5,142.167 114.5,141.833 114.5,141.5C 115.167,141.167 115.833,140.833 116.5,140.5C 116.263,141.791 116.596,142.791 117.5,143.5C 117.917,144.124 118.584,144.457 119.5,144.5C 122.852,143.831 126.185,143.164 129.5,142.5C 132.456,141.863 135.456,141.363 138.5,141C 139.924,139.184 141.59,137.684 143.5,136.5 Z"/></g>
<g><path style="opacity:0.067" fill="#c5c5c5" d="M 180.5,141.5 C 179.046,143.263 179.38,144.597 181.5,145.5C 179.872,146.853 178.538,146.519 177.5,144.5C 178.833,144.167 178.833,143.833 177.5,143.5C 176.957,143.44 176.624,143.107 176.5,142.5C 177.689,141.571 179.022,141.238 180.5,141.5 Z"/></g>
<g><path style="opacity:1" fill="#fafbb3" d="M 99.5,136.5 C 99.5,138.833 99.5,141.167 99.5,143.5C 101.484,143.617 103.15,142.95 104.5,141.5C 105.89,143.203 107.39,143.87 109,143.5C 109.278,142.584 109.778,141.918 110.5,141.5C 111.167,141.5 111.5,141.833 111.5,142.5C 111.5,143.167 111.5,143.833 111.5,144.5C 111.5,145.833 111.5,147.167 111.5,148.5C 106.167,148.5 100.833,148.5 95.5,148.5C 96.219,144.835 97.0524,141.168 98,137.5C 98.3826,136.944 98.8826,136.611 99.5,136.5 Z"/></g>
<g><path style="opacity:1" fill="#258959" d="M 53.5,129.5 C 54.0822,133.532 55.4155,137.199 57.5,140.5C 57.767,142.965 58.4336,145.299 59.5,147.5C 60.7932,151.12 62.7932,154.12 65.5,156.5C 66.5686,158.969 67.9019,161.302 69.5,163.5C 70.7805,166.447 72.7805,168.781 75.5,170.5C 76.1667,171.833 76.8333,173.167 77.5,174.5C 75.1773,172.196 72.5107,170.196 69.5,168.5C 69.268,171.216 70.4347,173.549 73,175.5C 73.2532,178.2 73.2532,180.867 73,183.5C 73.414,183.043 73.914,182.709 74.5,182.5C 75.35,184.904 76.35,187.237 77.5,189.5C 80.5,190.167 83.5,190.833 86.5,191.5C 87.4387,193.692 87.1053,195.692 85.5,197.5C 82.2327,197.576 80.8993,196.243 81.5,193.5C 82.8139,194.313 83.9805,195.313 85,196.5C 85.5946,195.101 85.4279,193.768 84.5,192.5C 82.5787,191.359 80.5787,191.192 78.5,192C 77.7476,192.671 77.4142,193.504 77.5,194.5C 74.8283,192.609 73.8283,189.942 74.5,186.5C 72.5,186.5 70.5,186.5 68.5,186.5C 67.5876,185.262 67.4209,183.928 68,182.5C 69.6851,180.983 71.1851,179.316 72.5,177.5C 71.9984,176.479 71.3317,176.312 70.5,177C 68.3799,179.409 66.3799,181.909 64.5,184.5C 65.212,187.212 66.8787,188.879 69.5,189.5C 69.8333,189.5 70.1667,189.5 70.5,189.5C 70.5271,191.199 71.1938,192.533 72.5,193.5C 75.0254,197.269 78.6921,199.269 83.5,199.5C 84.4164,199.457 85.0831,199.124 85.5,198.5C 86.8499,200.02 88.1832,200.687 89.5,200.5C 88.506,202.334 88.506,204.001 89.5,205.5C 90.8195,206.942 92.4862,207.608 94.5,207.5C 94.5,207.833 94.5,208.167 94.5,208.5C 96.1667,209.833 97.8333,209.833 99.5,208.5C 100.5,208.5 101.5,208.5 102.5,208.5C 102.843,206.517 102.176,205.183 100.5,204.5C 101.38,200.872 103.047,197.705 105.5,195C 104.956,194.283 104.289,193.783 103.5,193.5C 102.833,192.167 102.167,192.167 101.5,193.5C 99.6208,192.659 97.6208,192.325 95.5,192.5C 95.5,191.5 95.5,190.5 95.5,189.5C 100.944,189.823 106.277,189.823 111.5,189.5C 111.5,199.167 111.5,208.833 111.5,218.5C 93.7989,217.607 78.4656,211.274 65.5,199.5C 63.8196,197.473 62.6529,195.139 62,192.5C 58.7139,190.549 55.7139,188.215 53,185.5C 52.5172,184.552 52.3505,183.552 52.5,182.5C 51.1667,182.5 49.8333,182.5 48.5,182.5C 48.5,182.167 48.5,181.833 48.5,181.5C 47.8505,179.565 47.5172,177.565 47.5,175.5C 46.5,175.5 45.5,175.5 44.5,175.5C 44.6567,174.127 44.49,172.793 44,171.5C 43.1237,169.365 41.6237,168.031 39.5,167.5C 40.7279,165.99 40.7279,164.49 39.5,163C 40,162.5 40.5,162 41,161.5C 42.0637,164.564 43.897,167.064 46.5,169C 48.1341,169.494 49.8008,169.66 51.5,169.5C 51.5,170.167 51.8333,170.5 52.5,170.5C 52.6184,175.407 54.7851,179.074 59,181.5C 59.3988,181.272 59.5654,180.938 59.5,180.5C 63.155,180.528 65.8217,178.861 67.5,175.5C 66.675,174.614 65.675,174.281 64.5,174.5C 64.4747,178.284 62.8081,179.284 59.5,177.5C 59.1667,177.5 58.8333,177.5 58.5,177.5C 58.5,176.833 58.5,176.167 58.5,175.5C 58.366,173.708 58.6993,172.042 59.5,170.5C 61.9718,166.323 62.6385,161.989 61.5,157.5C 59.2326,157.146 57.8993,157.479 57.5,158.5C 55.6961,160.467 53.6961,162.301 51.5,164C 50.8333,164.667 50.1667,164.667 49.5,164C 47.6949,161.433 46.3615,158.599 45.5,155.5C 46.3128,154.186 47.3128,153.019 48.5,152C 50.779,151.527 52.779,150.527 54.5,149C 53.1667,148.333 51.8333,148.333 50.5,149C 48.1301,151.429 45.4634,151.929 42.5,150.5C 42.5,149.833 42.1667,149.5 41.5,149.5C 41.5,148.167 42.1667,147.5 43.5,147.5C 46.1662,147.934 47.3329,146.934 47,144.5C 45.2111,142.771 43.0444,142.104 40.5,142.5C 39.4891,140.598 39.3224,138.598 40,136.5C 42.7685,135.534 45.2685,134.201 47.5,132.5C 48.2685,134.667 49.2685,136.834 50.5,139C 51.8333,139.667 53.1667,139.667 54.5,139C 52.4081,135.89 52.0748,132.723 53.5,129.5 Z M 58.5,175.5 C 58.5,176.167 58.5,176.833 58.5,177.5C 57.8333,177.167 57.1667,176.833 56.5,176.5C 56.4088,174.302 57.0755,173.969 58.5,175.5 Z M 68.5,187.5 C 69.8333,187.5 70.5,188.167 70.5,189.5C 70.1667,189.5 69.8333,189.5 69.5,189.5C 69.1667,188.833 68.8333,188.167 68.5,187.5 Z M 70.5,189.5 C 72.5323,190.048 73.5323,191.381 73.5,193.5C 73.1667,193.5 72.8333,193.5 72.5,193.5C 71.1938,192.533 70.5271,191.199 70.5,189.5 Z M 79.5,196.5 C 77.0065,196.869 76.3398,196.203 77.5,194.5C 76.3398,196.203 77.0065,196.869 79.5,196.5 Z M 94.5,207.5 C 92.4862,207.608 90.8195,206.942 89.5,205.5C 89.369,204.761 89.5357,204.094 90,203.5C 91.6943,204.699 93.1943,206.032 94.5,207.5 Z M 99.5,204.5 C 99.8333,204.5 100.167,204.5 100.5,204.5C 101.772,207.656 101.439,207.989 99.5,205.5C 99.5,205.167 99.5,204.833 99.5,204.5 Z"/></g>
<g><path style="opacity:1" fill="#f6e2c2" d="M 145.5,138.5 C 145.365,142.061 146.698,144.895 149.5,147C 149.167,147.333 148.833,147.667 148.5,148C 153.552,148.726 158.552,148.559 163.5,147.5C 162.674,150.485 161.341,153.151 159.5,155.5C 159.714,153.856 159.38,152.356 158.5,151C 150.185,149.947 141.852,149.114 133.5,148.5C 128.63,148.911 123.797,149.578 119,150.5C 116.176,150.697 113.676,150.031 111.5,148.5C 111.5,147.167 111.5,145.833 111.5,144.5C 113.912,144.694 114.912,146.027 114.5,148.5C 123.487,147.002 132.487,145.502 141.5,144C 142.977,142.188 144.31,140.355 145.5,138.5 Z"/></g>
<g><path style="opacity:0.702" fill="#6faa8f" d="M 27.5,137.5 C 31.0598,142.507 33.0598,148.173 33.5,154.5C 30.6907,149.195 28.6907,143.528 27.5,137.5 Z"/></g>
<g><path style="opacity:0.023" fill="#eaeaea" d="M 185.5,146.5 C 186.451,147.919 186.784,149.585 186.5,151.5C 186.167,151.5 185.833,151.5 185.5,151.5C 185.5,150.833 185.167,150.5 184.5,150.5C 184.5,149.5 184.5,148.5 184.5,147.5C 185.167,147.5 185.5,147.167 185.5,146.5 Z"/></g>
<g><path style="opacity:1" fill="#78492f" d="M 159.5,156.5 C 157.801,158.857 156.135,161.19 154.5,163.5C 152.656,161.721 151.99,159.388 152.5,156.5C 154.833,156.5 157.167,156.5 159.5,156.5 Z"/></g>
<g><path style="opacity:0.999" fill="#141212" d="M 173.5,113.5 C 175.239,115.785 176.239,118.451 176.5,121.5C 175.477,123.003 174.477,124.503 173.5,126C 175.182,128.169 176.849,130.336 178.5,132.5C 178.5,133.167 178.5,133.833 178.5,134.5C 178.443,135.609 178.11,136.609 177.5,137.5C 178.789,138.637 179.789,139.97 180.5,141.5C 179.022,141.238 177.689,141.571 176.5,142.5C 176.624,143.107 176.957,143.44 177.5,143.5C 177.5,143.833 177.5,144.167 177.5,144.5C 178.538,146.519 179.872,146.853 181.5,145.5C 182.609,145.557 183.609,145.89 184.5,146.5C 184.5,146.833 184.5,147.167 184.5,147.5C 184.5,148.5 184.5,149.5 184.5,150.5C 184.461,152.224 184.794,152.557 185.5,151.5C 185.833,151.5 186.167,151.5 186.5,151.5C 186.369,152.239 186.536,152.906 187,153.5C 188.011,152.663 189.178,152.33 190.5,152.5C 190.714,150.856 190.38,149.356 189.5,148C 190.448,147.517 191.448,147.351 192.5,147.5C 189.7,157.575 185.367,166.908 179.5,175.5C 179.167,175.5 178.833,175.5 178.5,175.5C 177.141,176.007 176.141,177.007 175.5,178.5C 174.914,178.291 174.414,177.957 174,177.5C 173.691,178.766 173.191,179.933 172.5,181C 169.119,183.055 166.119,182.721 163.5,180C 164.252,179.329 164.586,178.496 164.5,177.5C 165.492,177.672 166.158,177.338 166.5,176.5C 166.842,175.662 167.508,175.328 168.5,175.5C 169.167,175.5 169.833,175.5 170.5,175.5C 171.86,178.015 172.86,177.682 173.5,174.5C 174.167,174.5 174.5,174.167 174.5,173.5C 174.5,172.833 174.167,172.5 173.5,172.5C 174.071,171.027 174.071,169.36 173.5,167.5C 173.5,167.167 173.5,166.833 173.5,166.5C 173.119,165.069 172.119,164.236 170.5,164C 171.252,163.329 171.586,162.496 171.5,161.5C 173.677,158.961 175.177,155.961 176,152.5C 176.78,150.613 176.613,148.946 175.5,147.5C 174.001,145.198 172.668,145.531 171.5,148.5C 171.5,149.167 171.5,149.833 171.5,150.5C 171.5,151.167 171.5,151.833 171.5,152.5C 171.5,153.833 171.5,155.167 171.5,156.5C 169.556,160.054 167.889,163.721 166.5,167.5C 167.789,168.637 168.789,169.97 169.5,171.5C 168.313,173.975 166.313,174.975 163.5,174.5C 163.5,174.167 163.5,173.833 163.5,173.5C 162.012,170.814 161.345,171.147 161.5,174.5C 159.265,174.205 157.265,174.539 155.5,175.5C 155.5,176.5 155.5,177.5 155.5,178.5C 155.5,179.5 155.5,180.5 155.5,181.5C 155.5,182.167 155.167,182.5 154.5,182.5C 153.5,182.5 152.5,182.5 151.5,182.5C 151.5,183.833 151.5,185.167 151.5,186.5C 152.5,186.5 153.5,186.5 154.5,186.5C 154.5,186.833 154.5,187.167 154.5,187.5C 154.5,187.833 154.5,188.167 154.5,188.5C 152.067,188.727 150.401,187.727 149.5,185.5C 149.5,184.5 149.5,183.5 149.5,182.5C 147.821,182.285 146.821,182.952 146.5,184.5C 145.399,183.2 144.066,182.7 142.5,183C 145.668,187.73 144.668,190.23 139.5,190.5C 138.167,190.5 136.833,190.5 135.5,190.5C 135.5,191.833 135.5,193.167 135.5,194.5C 135.232,196.099 135.566,197.432 136.5,198.5C 137.841,200.834 137.174,202.501 134.5,203.5C 133.833,202.167 132.833,201.167 131.5,200.5C 131.5,199.833 131.167,199.5 130.5,199.5C 130.167,198.167 129.833,198.167 129.5,199.5C 128.587,201.086 128.587,202.586 129.5,204C 128.552,204.483 127.552,204.649 126.5,204.5C 126.657,205.873 126.49,207.207 126,208.5C 125.809,206.292 125.309,204.292 124.5,202.5C 124.5,201.833 124.167,201.5 123.5,201.5C 121.83,198.895 121.496,198.895 122.5,201.5C 121.962,203.117 121.629,204.784 121.5,206.5C 119.833,207.833 118.167,207.833 116.5,206.5C 115.833,201.167 115.167,201.167 114.5,206.5C 112.547,200.926 111.88,194.926 112.5,188.5C 124.546,187.305 134.879,182.638 143.5,174.5C 145.749,173.92 147.415,172.587 148.5,170.5C 151.219,168.781 153.219,166.447 154.5,163.5C 156.135,161.19 157.801,158.857 159.5,156.5C 159.5,156.167 159.5,155.833 159.5,155.5C 161.341,153.151 162.674,150.485 163.5,147.5C 168.383,136.636 171.717,125.303 173.5,113.5 Z M 175.5,147.5 C 176.613,148.946 176.78,150.613 176,152.5C 175.177,155.961 173.677,158.961 171.5,161.5C 169.833,163.5 168.167,165.5 166.5,167.5C 167.889,163.721 169.556,160.054 171.5,156.5C 172.345,155.329 173.011,153.995 173.5,152.5C 174.931,151.22 175.598,149.553 175.5,147.5 Z M 175.5,147.5 C 174.167,147.5 173.5,148.167 173.5,149.5C 172.833,149.167 172.167,148.833 171.5,148.5C 172.668,145.531 174.001,145.198 175.5,147.5 Z M 169.5,166.5 C 170.773,167.077 170.773,167.743 169.5,168.5C 168.537,168.03 168.537,167.363 169.5,166.5 Z M 171.5,170.5 C 170.925,172.411 169.925,174.078 168.5,175.5C 167.508,175.328 166.842,175.662 166.5,176.5C 164.973,176.573 163.973,175.906 163.5,174.5C 166.313,174.975 168.313,173.975 169.5,171.5C 170.167,171.167 170.833,170.833 171.5,170.5 Z M 155.5,175.5 C 158.95,174.756 160.616,176.09 160.5,179.5C 159.391,179.557 158.391,179.89 157.5,180.5C 156.662,180.158 156.328,179.492 156.5,178.5C 156.167,178.5 155.833,178.5 155.5,178.5C 155.5,177.5 155.5,176.5 155.5,175.5 Z M 131.5,200.5 C 132.833,201.167 133.833,202.167 134.5,203.5C 133.833,203.5 133.167,203.5 132.5,203.5C 131.89,202.609 131.557,201.609 131.5,200.5 Z M 123.5,201.5 C 123.167,201.5 122.833,201.5 122.5,201.5C 121.496,198.895 121.83,198.895 123.5,201.5 Z"/></g>
<g><path style="opacity:0.141" fill="#bec1c3" d="M 171.5,148.5 C 172.167,148.833 172.833,149.167 173.5,149.5C 173.5,150.5 173.5,151.5 173.5,152.5C 173.011,153.995 172.345,155.329 171.5,156.5C 171.5,155.167 171.5,153.833 171.5,152.5C 172.833,151.833 172.833,151.167 171.5,150.5C 171.5,149.833 171.5,149.167 171.5,148.5 Z"/></g>
<g><path style="opacity:0.592" fill="#414042" d="M 175.5,147.5 C 175.598,149.553 174.931,151.22 173.5,152.5C 173.5,151.5 173.5,150.5 173.5,149.5C 173.5,148.167 174.167,147.5 175.5,147.5 Z"/></g>
<g><path style="opacity:1" fill="#7e5428" d="M 65.5,156.5 C 67.8333,156.5 70.1667,156.5 72.5,156.5C 72.5,158.833 72.5,161.167 72.5,163.5C 71.5,163.5 70.5,163.5 69.5,163.5C 67.9019,161.302 66.5686,158.969 65.5,156.5 Z"/></g>
<g><path style="opacity:0.013" fill="#caf5e7" d="M 39.5,146.5 C 40.1667,147.5 40.8333,148.5 41.5,149.5C 42.1667,149.5 42.5,149.833 42.5,150.5C 45.4634,151.929 48.1301,151.429 50.5,149C 51.8333,148.333 53.1667,148.333 54.5,149C 52.779,150.527 50.779,151.527 48.5,152C 47.3128,153.019 46.3128,154.186 45.5,155.5C 46.3615,158.599 47.6949,161.433 49.5,164C 50.1667,164.667 50.8333,164.667 51.5,164C 53.6961,162.301 55.6961,160.467 57.5,158.5C 59.1765,159.183 59.8432,160.517 59.5,162.5C 58.1266,162.343 56.7932,162.51 55.5,163C 53.4279,165.707 50.7612,166.707 47.5,166C 46.0012,162.844 44.6679,159.677 43.5,156.5C 42.3473,155.687 42.3473,154.687 43.5,153.5C 41.993,152.611 40.6597,151.611 39.5,150.5C 39.5,149.167 39.5,147.833 39.5,146.5 Z"/></g>
<g><path style="opacity:1" fill="#2f835d" d="M 39.5,150.5 C 40.6597,151.611 41.993,152.611 43.5,153.5C 42.3473,154.687 42.3473,155.687 43.5,156.5C 44.6679,159.677 46.0012,162.844 47.5,166C 50.7612,166.707 53.4279,165.707 55.5,163C 56.7932,162.51 58.1266,162.343 59.5,162.5C 59.8432,160.517 59.1765,159.183 57.5,158.5C 57.8993,157.479 59.2326,157.146 61.5,157.5C 62.6385,161.989 61.9718,166.323 59.5,170.5C 58.1779,170.33 57.0113,170.663 56,171.5C 55.2204,173.387 55.3871,175.054 56.5,176.5C 56.7706,178.43 57.7706,179.764 59.5,180.5C 59.5654,180.938 59.3988,181.272 59,181.5C 54.7851,179.074 52.6184,175.407 52.5,170.5C 55.4123,168.934 58.079,166.934 60.5,164.5C 59.9984,163.479 59.3317,163.312 58.5,164C 56.0043,165.666 53.671,167.5 51.5,169.5C 49.8008,169.66 48.1341,169.494 46.5,169C 43.897,167.064 42.0637,164.564 41,161.5C 40.5,162 40,162.5 39.5,163C 40.7279,164.49 40.7279,165.99 39.5,167.5C 37.659,165.151 36.3257,162.485 35.5,159.5C 36.8333,159.5 38.1667,159.5 39.5,159.5C 40.0946,156.654 40.0946,153.654 39.5,150.5 Z"/></g>
<g><path style="opacity:1" fill="#ebbf8c" d="M 100.5,152.5 C 100.196,153.15 99.8627,153.817 99.5,154.5C 101.743,155.474 104.076,155.808 106.5,155.5C 106.5,155.833 106.5,156.167 106.5,156.5C 104.167,156.5 101.833,156.5 99.5,156.5C 99.5,158.833 99.5,161.167 99.5,163.5C 101.833,163.5 104.167,163.5 106.5,163.5C 104.393,164.468 102.059,164.802 99.5,164.5C 99.3433,165.873 99.51,167.207 100,168.5C 100.333,168.167 100.667,167.833 101,167.5C 101.985,168.814 103.152,169.814 104.5,170.5C 102.856,170.286 101.356,170.62 100,171.5C 99.5017,174.817 99.335,178.15 99.5,181.5C 98.8333,181.5 98.1667,181.5 97.5,181.5C 97.5,181.167 97.5,180.833 97.5,180.5C 97.5,178.5 97.5,176.5 97.5,174.5C 97.6162,171.09 95.9496,169.756 92.5,170.5C 94.7773,169.916 96.7773,168.749 98.5,167C 98.0946,166.055 97.428,165.388 96.5,165C 94.2922,164.809 92.2922,164.309 90.5,163.5C 92.8333,163.5 95.1667,163.5 97.5,163.5C 97.5,161.167 97.5,158.833 97.5,156.5C 95.1667,156.5 92.8333,156.5 90.5,156.5C 88.871,154.804 89.2043,153.804 91.5,153.5C 91.9704,154.693 92.9704,155.36 94.5,155.5C 96.0296,155.36 97.0296,154.693 97.5,153.5C 98.391,152.89 99.391,152.557 100.5,152.5 Z"/></g>
<g><path style="opacity:0.071" fill="#adeed7" d="M 52.5,170.5 C 51.8333,170.5 51.5,170.167 51.5,169.5C 53.671,167.5 56.0043,165.666 58.5,164C 59.3317,163.312 59.9984,163.479 60.5,164.5C 58.079,166.934 55.4123,168.934 52.5,170.5 Z"/></g>
<g><path style="opacity:0.867" fill="#5d9f80" d="M 39.5,167.5 C 41.6237,168.031 43.1237,169.365 44,171.5C 44.49,172.793 44.6567,174.127 44.5,175.5C 45.5,175.5 46.5,175.5 47.5,175.5C 47.5172,177.565 47.8505,179.565 48.5,181.5C 44.5058,177.521 41.5058,172.855 39.5,167.5 Z"/></g>
<g><path style="opacity:0.278" fill="#9f9f9f" d="M 171.5,161.5 C 171.586,162.496 171.252,163.329 170.5,164C 172.119,164.236 173.119,165.069 173.5,166.5C 172.833,166.5 172.5,166.833 172.5,167.5C 171.596,168.209 171.263,169.209 171.5,170.5C 170.833,170.833 170.167,171.167 169.5,171.5C 168.789,169.97 167.789,168.637 166.5,167.5C 168.167,165.5 169.833,163.5 171.5,161.5 Z M 169.5,166.5 C 168.537,167.363 168.537,168.03 169.5,168.5C 170.773,167.743 170.773,167.077 169.5,166.5 Z"/></g>
<g><path style="opacity:0.851" fill="#4a4a4a" d="M 172.5,167.5 C 172.833,167.5 173.167,167.5 173.5,167.5C 174.071,169.36 174.071,171.027 173.5,172.5C 172.9,173.9 171.9,174.9 170.5,175.5C 169.833,175.5 169.167,175.5 168.5,175.5C 169.925,174.078 170.925,172.411 171.5,170.5C 172.404,169.791 172.737,168.791 172.5,167.5 Z"/></g>
<g><path style="opacity:1" fill="#75593d" d="M 148.5,170.5 C 147.415,172.587 145.749,173.92 143.5,174.5C 143.384,171.09 145.05,169.756 148.5,170.5 Z"/></g>
<g><path style="opacity:0.051" fill="#b8f0d8" d="M 59.5,170.5 C 58.6993,172.042 58.366,173.708 58.5,175.5C 57.0755,173.969 56.4088,174.302 56.5,176.5C 55.3871,175.054 55.2204,173.387 56,171.5C 57.0113,170.663 58.1779,170.33 59.5,170.5 Z"/></g>
<g><path style="opacity:0.129" fill="#cbcbcb" d="M 173.5,172.5 C 174.167,172.5 174.5,172.833 174.5,173.5C 173.833,173.5 173.5,173.833 173.5,174.5C 172.86,177.682 171.86,178.015 170.5,175.5C 171.9,174.9 172.9,173.9 173.5,172.5 Z"/></g>
<g><path style="opacity:1" fill="#78854e" d="M 75.5,170.5 C 78.9496,169.756 80.6162,171.09 80.5,174.5C 79.5,174.5 78.5,174.5 77.5,174.5C 76.8333,173.167 76.1667,171.833 75.5,170.5 Z"/></g>
<g><path style="opacity:1" fill="#9e7441" d="M 92.5,170.5 C 95.9496,169.756 97.6162,171.09 97.5,174.5C 95.5,174.5 93.5,174.5 91.5,174.5C 91.3379,176.527 91.5045,178.527 92,180.5C 93.7067,179.862 95.54,179.862 97.5,180.5C 97.5,180.833 97.5,181.167 97.5,181.5C 96.8333,181.5 96.1667,181.5 95.5,181.5C 93.2188,181.923 91.5521,181.256 90.5,179.5C 90.3359,176.813 90.5026,174.146 91,171.5C 91.3826,170.944 91.8826,170.611 92.5,170.5 Z"/></g>
<g><path style="opacity:0.947" fill="#3e3e3e" d="M 163.5,173.5 C 162.167,173.833 162.167,174.167 163.5,174.5C 163.973,175.906 164.973,176.573 166.5,176.5C 166.158,177.338 165.492,177.672 164.5,177.5C 163.167,178.167 161.833,178.833 160.5,179.5C 160.616,176.09 158.95,174.756 155.5,175.5C 157.265,174.539 159.265,174.205 161.5,174.5C 161.345,171.147 162.012,170.814 163.5,173.5 Z"/></g>
<g><path style="opacity:0.024" fill="#d4d4d4" d="M 178.5,175.5 C 178.833,175.5 179.167,175.5 179.5,175.5C 179.573,177.027 178.906,178.027 177.5,178.5C 177.557,177.391 177.89,176.391 178.5,175.5 Z"/></g>
<g><path style="opacity:1" fill="#814a1f" d="M 97.5,174.5 C 97.5,176.5 97.5,178.5 97.5,180.5C 95.54,179.862 93.7067,179.862 92,180.5C 91.5045,178.527 91.3379,176.527 91.5,174.5C 93.5,174.5 95.5,174.5 97.5,174.5 Z"/></g>
<g><path style="opacity:0.141" fill="#828282" d="M 156.5,178.5 C 156.639,176.663 157.306,176.33 158.5,177.5C 158.043,178.298 157.376,178.631 156.5,178.5 Z"/></g>
<g><path style="opacity:0.153" fill="#a5efd6" d="M 59.5,180.5 C 57.7706,179.764 56.7706,178.43 56.5,176.5C 57.1667,176.833 57.8333,177.167 58.5,177.5C 58.8333,178.833 59.1667,178.833 59.5,177.5C 62.8081,179.284 64.4747,178.284 64.5,174.5C 65.675,174.281 66.675,174.614 67.5,175.5C 65.8217,178.861 63.155,180.528 59.5,180.5 Z"/></g>
<g><path style="opacity:1" fill="#f5d4a0" d="M 59.5,147.5 C 71.4498,148.459 83.4498,148.793 95.5,148.5C 100.833,148.5 106.167,148.5 111.5,148.5C 113.676,150.031 116.176,150.697 119,150.5C 123.797,149.578 128.63,148.911 133.5,148.5C 141.852,149.114 150.185,149.947 158.5,151C 159.38,152.356 159.714,153.856 159.5,155.5C 159.5,155.833 159.5,156.167 159.5,156.5C 157.167,156.5 154.833,156.5 152.5,156.5C 151.99,159.388 152.656,161.721 154.5,163.5C 153.219,166.447 151.219,168.781 148.5,170.5C 145.05,169.756 143.384,171.09 143.5,174.5C 134.879,182.638 124.546,187.305 112.5,188.5C 112.167,188.5 111.833,188.5 111.5,188.5C 107.282,185.08 102.282,183.246 96.5,183C 95.944,182.617 95.6107,182.117 95.5,181.5C 96.1667,181.5 96.8333,181.5 97.5,181.5C 98.1667,181.5 98.8333,181.5 99.5,181.5C 101.833,181.5 104.167,181.5 106.5,181.5C 106.665,178.15 106.498,174.817 106,171.5C 105.617,170.944 105.117,170.611 104.5,170.5C 103.152,169.814 101.985,168.814 101,167.5C 100.667,167.833 100.333,168.167 100,168.5C 99.51,167.207 99.3433,165.873 99.5,164.5C 102.059,164.802 104.393,164.468 106.5,163.5C 106.5,161.167 106.5,158.833 106.5,156.5C 106.5,156.167 106.5,155.833 106.5,155.5C 106.586,154.504 106.252,153.671 105.5,153C 103.866,152.506 102.199,152.34 100.5,152.5C 99.391,152.557 98.391,152.89 97.5,153.5C 95.3888,152.258 93.3888,152.258 91.5,153.5C 89.2043,153.804 88.871,154.804 90.5,156.5C 90.5,158.833 90.5,161.167 90.5,163.5C 92.2922,164.309 94.2922,164.809 96.5,165C 97.428,165.388 98.0946,166.055 98.5,167C 96.7773,168.749 94.7773,169.916 92.5,170.5C 91.8826,170.611 91.3826,170.944 91,171.5C 90.5026,174.146 90.3359,176.813 90.5,179.5C 88.0634,179.114 86.0634,177.947 84.5,176C 83.2068,175.51 81.8734,175.343 80.5,175.5C 80.5,175.167 80.5,174.833 80.5,174.5C 80.6162,171.09 78.9496,169.756 75.5,170.5C 72.7805,168.781 70.7805,166.447 69.5,163.5C 70.5,163.5 71.5,163.5 72.5,163.5C 72.5,161.167 72.5,158.833 72.5,156.5C 70.1667,156.5 67.8333,156.5 65.5,156.5C 62.7932,154.12 60.7932,151.12 59.5,147.5 Z"/></g>
<g><path style="opacity:1" fill="#875727" d="M 117.5,170.5 C 119.792,170.244 121.959,170.577 124,171.5C 124.498,174.817 124.665,178.15 124.5,181.5C 122.167,181.5 119.833,181.5 117.5,181.5C 117.5,177.833 117.5,174.167 117.5,170.5 Z"/></g>
<g><path style="opacity:1" fill="#824f1e" d="M 117.5,156.5 C 119.833,156.5 122.167,156.5 124.5,156.5C 124.5,158.833 124.5,161.167 124.5,163.5C 122.167,163.5 119.833,163.5 117.5,163.5C 117.5,161.167 117.5,158.833 117.5,156.5 Z"/></g>
<g><path style="opacity:1" fill="#7b4a1a" d="M 73.5,156.5 C 75.8333,156.5 78.1667,156.5 80.5,156.5C 80.5,158.833 80.5,161.167 80.5,163.5C 78.1667,163.5 75.8333,163.5 73.5,163.5C 73.5,161.167 73.5,158.833 73.5,156.5 Z"/></g>
<g><path style="opacity:1" fill="#834d1c" d="M 90.5,156.5 C 92.8333,156.5 95.1667,156.5 97.5,156.5C 97.5,158.833 97.5,161.167 97.5,163.5C 95.1667,163.5 92.8333,163.5 90.5,163.5C 90.5,161.167 90.5,158.833 90.5,156.5 Z"/></g>
<g><path style="opacity:1" fill="#854a1e" d="M 125.5,156.5 C 127.833,156.5 130.167,156.5 132.5,156.5C 132.5,158.833 132.5,161.167 132.5,163.5C 130.167,163.5 127.833,163.5 125.5,163.5C 125.5,161.167 125.5,158.833 125.5,156.5 Z"/></g>
<g><path style="opacity:1" fill="#834b1b" d="M 106.5,156.5 C 106.5,158.833 106.5,161.167 106.5,163.5C 104.167,163.5 101.833,163.5 99.5,163.5C 99.5,161.167 99.5,158.833 99.5,156.5C 101.833,156.5 104.167,156.5 106.5,156.5 Z"/></g>
<g><path style="opacity:1" fill="#844a20" d="M 143.5,156.5 C 145.833,156.5 148.167,156.5 150.5,156.5C 150.5,158.833 150.5,161.167 150.5,163.5C 148.167,163.5 145.833,163.5 143.5,163.5C 143.5,161.167 143.5,158.833 143.5,156.5 Z"/></g>
<g><path style="opacity:1" fill="#824d24" d="M 127.5,152.5 C 129.665,152.116 131.332,152.783 132.5,154.5C 130.235,155.647 127.902,155.814 125.5,155C 126.381,154.292 127.047,153.458 127.5,152.5 Z"/></g>
<g><path style="opacity:1" fill="#834e26" d="M 118.5,152.5 C 121.022,152.128 123.022,152.961 124.5,155C 122.098,155.814 119.765,155.647 117.5,154.5C 117.863,153.817 118.196,153.15 118.5,152.5 Z"/></g>
<g><path style="opacity:1" fill="#8a5825" d="M 100.5,152.5 C 102.199,152.34 103.866,152.506 105.5,153C 106.252,153.671 106.586,154.504 106.5,155.5C 104.076,155.808 101.743,155.474 99.5,154.5C 99.8627,153.817 100.196,153.15 100.5,152.5 Z"/></g>
<g><path style="opacity:1" fill="#885321" d="M 74.5,152.5 C 76.9775,152.051 78.9775,152.717 80.5,154.5C 78.1667,155.833 75.8333,155.833 73.5,154.5C 73.8627,153.817 74.1961,153.15 74.5,152.5 Z"/></g>
<g><path style="opacity:1" fill="#784e21" d="M 153.5,152.5 C 155.665,152.116 157.332,152.783 158.5,154.5C 156.5,155.833 154.5,155.833 152.5,154.5C 152.863,153.817 153.196,153.15 153.5,152.5 Z"/></g>
<g><path style="opacity:1" fill="#7f4e1c" d="M 97.5,153.5 C 97.0296,154.693 96.0296,155.36 94.5,155.5C 92.9704,155.36 91.9704,154.693 91.5,153.5C 93.3888,152.258 95.3888,152.258 97.5,153.5 Z"/></g>
<g><path style="opacity:1" fill="#7e481b" d="M 66.5,152.5 C 68.6648,152.116 70.3315,152.783 71.5,154.5C 69.5,155.833 67.5,155.833 65.5,154.5C 65.8627,153.817 66.1961,153.15 66.5,152.5 Z"/></g>
<g><path style="opacity:1" fill="#855424" d="M 144.5,152.5 C 146.977,152.051 148.977,152.717 150.5,154.5C 148.235,155.647 145.902,155.814 143.5,155C 144.252,154.329 144.586,153.496 144.5,152.5 Z"/></g>
<g><path style="opacity:1" fill="#8e5628" d="M 104.5,170.5 C 105.117,170.611 105.617,170.944 106,171.5C 106.498,174.817 106.665,178.15 106.5,181.5C 104.167,181.5 101.833,181.5 99.5,181.5C 99.335,178.15 99.5017,174.817 100,171.5C 101.356,170.62 102.856,170.286 104.5,170.5 Z"/></g>
<g><path style="opacity:1" fill="#8a592a" d="M 126.5,170.5 C 128.467,170.261 130.301,170.594 132,171.5C 132.498,174.817 132.665,178.15 132.5,181.5C 130.167,181.5 127.833,181.5 125.5,181.5C 125.244,177.731 125.577,174.064 126.5,170.5 Z"/></g>
<g><path style="opacity:0.993" fill="#1a1a1a" d="M 178.5,175.5 C 177.89,176.391 177.557,177.391 177.5,178.5C 163.76,199.202 144.76,212.202 120.5,217.5C 118.076,217.808 115.743,217.474 113.5,216.5C 113.709,215.914 114.043,215.414 114.5,215C 112.808,213.599 112.141,211.766 112.5,209.5C 116.349,209.632 119.849,210.632 123,212.5C 123.879,209.654 125.546,208.987 128,210.5C 128.464,209.906 128.631,209.239 128.5,208.5C 130.179,208.715 131.179,208.048 131.5,206.5C 131.5,205.833 131.5,205.167 131.5,204.5C 132.167,204.5 132.5,204.167 132.5,203.5C 133.167,203.5 133.833,203.5 134.5,203.5C 135.994,204.399 137.494,204.065 139,202.5C 141.038,199.757 142.538,196.757 143.5,193.5C 141.924,192.857 140.59,191.857 139.5,190.5C 144.668,190.23 145.668,187.73 142.5,183C 144.066,182.7 145.399,183.2 146.5,184.5C 147.209,185.404 148.209,185.737 149.5,185.5C 150.401,187.727 152.067,188.727 154.5,188.5C 154.5,188.833 154.5,189.167 154.5,189.5C 154.443,190.609 154.11,191.609 153.5,192.5C 151.565,193.15 149.565,193.483 147.5,193.5C 148.183,195.176 149.517,195.843 151.5,195.5C 153.5,195.5 154.5,194.5 154.5,192.5C 155.167,192.5 155.5,192.167 155.5,191.5C 156.833,190.167 156.833,188.833 155.5,187.5C 155.5,187.167 155.5,186.833 155.5,186.5C 155.5,185.833 155.5,185.167 155.5,184.5C 156.167,184.5 156.5,184.167 156.5,183.5C 157.404,182.791 157.737,181.791 157.5,180.5C 158.391,179.89 159.391,179.557 160.5,179.5C 161.833,178.833 163.167,178.167 164.5,177.5C 164.586,178.496 164.252,179.329 163.5,180C 166.119,182.721 169.119,183.055 172.5,181C 173.191,179.933 173.691,178.766 174,177.5C 174.414,177.957 174.914,178.291 175.5,178.5C 176.141,177.007 177.141,176.007 178.5,175.5 Z M 154.5,189.5 C 155.338,189.842 155.672,190.508 155.5,191.5C 155.5,192.167 155.167,192.5 154.5,192.5C 154.167,192.5 153.833,192.5 153.5,192.5C 154.11,191.609 154.443,190.609 154.5,189.5 Z M 153.5,192.5 C 152.833,193.5 152.167,194.5 151.5,195.5C 149.517,195.843 148.183,195.176 147.5,193.5C 149.565,193.483 151.565,193.15 153.5,192.5 Z"/></g>
<g><path style="opacity:0.031" fill="#d7d7d7" d="M 155.5,178.5 C 155.833,178.5 156.167,178.5 156.5,178.5C 156.328,179.492 156.662,180.158 157.5,180.5C 157.737,181.791 157.404,182.791 156.5,183.5C 156.672,182.508 156.338,181.842 155.5,181.5C 155.5,180.5 155.5,179.5 155.5,178.5 Z"/></g>
<g><path style="opacity:0.816" fill="#4c9272" d="M 48.5,182.5 C 49.8333,182.5 51.1667,182.5 52.5,182.5C 52.3505,183.552 52.5172,184.552 53,185.5C 55.7139,188.215 58.7139,190.549 62,192.5C 62.6529,195.139 63.8196,197.473 65.5,199.5C 58.8545,194.854 53.1878,189.188 48.5,182.5 Z"/></g>
<g><path style="opacity:0.063" fill="#b5f3dd" d="M 68.5,186.5 C 67.1667,186.833 67.1667,187.167 68.5,187.5C 68.8333,188.167 69.1667,188.833 69.5,189.5C 66.8787,188.879 65.212,187.212 64.5,184.5C 66.3799,181.909 68.3799,179.409 70.5,177C 71.3317,176.312 71.9984,176.479 72.5,177.5C 71.1851,179.316 69.6851,180.983 68,182.5C 67.4209,183.928 67.5876,185.262 68.5,186.5 Z"/></g>
<g><path style="opacity:1" fill="#d4e2a5" d="M 80.5,175.5 C 81.8734,175.343 83.2068,175.51 84.5,176C 86.0634,177.947 88.0634,179.114 90.5,179.5C 91.5521,181.256 93.2188,181.923 95.5,181.5C 95.6107,182.117 95.944,182.617 96.5,183C 102.282,183.246 107.282,185.08 111.5,188.5C 99.5842,187.702 89.2509,183.369 80.5,175.5 Z"/></g>
<g><path style="opacity:0.337" fill="#818181" d="M 149.5,185.5 C 148.209,185.737 147.209,185.404 146.5,184.5C 146.821,182.952 147.821,182.285 149.5,182.5C 149.5,183.5 149.5,184.5 149.5,185.5 Z"/></g>
<g><path style="opacity:0.796" fill="#7e7e7e" d="M 154.5,182.5 C 151.828,184.823 152.161,185.49 155.5,184.5C 155.5,185.167 155.5,185.833 155.5,186.5C 155.167,186.5 154.833,186.5 154.5,186.5C 153.5,186.5 152.5,186.5 151.5,186.5C 151.5,185.167 151.5,183.833 151.5,182.5C 152.5,182.5 153.5,182.5 154.5,182.5 Z"/></g>
<g><path style="opacity:0.125" fill="#aaaaaa" d="M 154.5,187.5 C 154.833,187.5 155.167,187.5 155.5,187.5C 156.833,188.833 156.833,190.167 155.5,191.5C 155.672,190.508 155.338,189.842 154.5,189.5C 154.5,189.167 154.5,188.833 154.5,188.5C 154.5,188.167 154.5,187.833 154.5,187.5 Z"/></g>
<g><path style="opacity:0.893" fill="#454545" d="M 139.5,190.5 C 140.59,191.857 141.924,192.857 143.5,193.5C 141.73,195.903 139.397,197.57 136.5,198.5C 136.393,196.097 137.393,194.264 139.5,193C 137.934,192.7 136.601,193.2 135.5,194.5C 135.5,193.167 135.5,191.833 135.5,190.5C 136.833,190.5 138.167,190.5 139.5,190.5 Z"/></g>
<g><path style="opacity:0.341" fill="#a2a2a2" d="M 153.5,192.5 C 153.833,192.5 154.167,192.5 154.5,192.5C 154.5,194.5 153.5,195.5 151.5,195.5C 152.167,194.5 152.833,193.5 153.5,192.5 Z"/></g>
<g><path style="opacity:0.133" fill="#a4ecd1" d="M 103.5,193.5 C 104.289,193.783 104.956,194.283 105.5,195C 103.047,197.705 101.38,200.872 100.5,204.5C 100.167,204.5 99.8333,204.5 99.5,204.5C 99.5,204.833 99.5,205.167 99.5,205.5C 98.391,205.443 97.391,205.11 96.5,204.5C 97.1834,202.824 98.5168,202.157 100.5,202.5C 101.159,199.545 101.492,196.545 101.5,193.5C 102.167,192.167 102.833,192.167 103.5,193.5 Z"/></g>
<g><path style="opacity:0.012" fill="#bdefdd" d="M 68.5,187.5 C 68.5,187.167 68.5,186.833 68.5,186.5C 70.5,186.5 72.5,186.5 74.5,186.5C 73.8283,189.942 74.8283,192.609 77.5,194.5C 77.4142,193.504 77.7476,192.671 78.5,192C 80.5787,191.192 82.5787,191.359 84.5,192.5C 85.4279,193.768 85.5946,195.101 85,196.5C 83.9805,195.313 82.8139,194.313 81.5,193.5C 80.8993,196.243 82.2327,197.576 85.5,197.5C 85.5,197.833 85.5,198.167 85.5,198.5C 85.0831,199.124 84.4164,199.457 83.5,199.5C 78.6921,199.269 75.0254,197.269 72.5,193.5C 72.8333,193.5 73.1667,193.5 73.5,193.5C 73.5323,191.381 72.5323,190.048 70.5,189.5C 70.5,188.167 69.8333,187.5 68.5,187.5 Z M 79.5,196.5 C 77.0065,196.869 76.3398,196.203 77.5,194.5C 76.3398,196.203 77.0065,196.869 79.5,196.5 Z"/></g>
<g><path style="opacity:1" fill="#1a8a50" d="M 77.5,174.5 C 78.5,174.5 79.5,174.5 80.5,174.5C 80.5,174.833 80.5,175.167 80.5,175.5C 89.2509,183.369 99.5842,187.702 111.5,188.5C 111.5,188.833 111.5,189.167 111.5,189.5C 106.277,189.823 100.944,189.823 95.5,189.5C 95.5,190.5 95.5,191.5 95.5,192.5C 97.6208,192.325 99.6208,192.659 101.5,193.5C 101.492,196.545 101.159,199.545 100.5,202.5C 98.5168,202.157 97.1834,202.824 96.5,204.5C 91.7316,204.369 90.7316,202.535 93.5,199C 91.9343,198.7 90.601,199.2 89.5,200.5C 88.1832,200.687 86.8499,200.02 85.5,198.5C 85.5,198.167 85.5,197.833 85.5,197.5C 87.1053,195.692 87.4387,193.692 86.5,191.5C 83.5,190.833 80.5,190.167 77.5,189.5C 76.35,187.237 75.35,184.904 74.5,182.5C 73.914,182.709 73.414,183.043 73,183.5C 73.2532,180.867 73.2532,178.2 73,175.5C 70.4347,173.549 69.268,171.216 69.5,168.5C 72.5107,170.196 75.1773,172.196 77.5,174.5 Z"/></g>
<g><path style="opacity:0.067" fill="#a7f1d9" d="M 107.5,201.5 C 107.769,203.429 107.269,205.095 106,206.5C 105.004,202.793 105.67,199.459 108,196.5C 108.78,198.387 108.613,200.054 107.5,201.5 Z"/></g>
<g><path style="opacity:0.82" fill="#6caf94" d="M 96.5,204.5 C 97.391,205.11 98.391,205.443 99.5,205.5C 101.439,207.989 101.772,207.656 100.5,204.5C 102.176,205.183 102.843,206.517 102.5,208.5C 101.5,208.5 100.5,208.5 99.5,208.5C 97.8333,209.833 96.1667,209.833 94.5,208.5C 97.1667,208.167 97.1667,207.833 94.5,207.5C 93.1943,206.032 91.6943,204.699 90,203.5C 89.5357,204.094 89.369,204.761 89.5,205.5C 88.506,204.001 88.506,202.334 89.5,200.5C 90.601,199.2 91.9343,198.7 93.5,199C 90.7316,202.535 91.7316,204.369 96.5,204.5 Z M 99.5,204.5 C 99.8333,204.5 100.167,204.5 100.5,204.5C 101.772,207.656 101.439,207.989 99.5,205.5C 99.5,205.167 99.5,204.833 99.5,204.5 Z"/></g>
<g><path style="opacity:0.694" fill="#8b8b8b" d="M 131.5,206.5 C 131.179,208.048 130.179,208.715 128.5,208.5C 127.833,208.5 127.5,208.167 127.5,207.5C 128.959,207.567 130.292,207.234 131.5,206.5 Z"/></g>
<g><path style="opacity:0.95" fill="#333b36" d="M 111.5,188.5 C 111.833,188.5 112.167,188.5 112.5,188.5C 111.88,194.926 112.547,200.926 114.5,206.5C 114.328,207.492 114.662,208.158 115.5,208.5C 118.839,210.235 121.506,209.568 123.5,206.5C 122.833,206.5 122.167,206.5 121.5,206.5C 121.629,204.784 121.962,203.117 122.5,201.5C 122.833,201.5 123.167,201.5 123.5,201.5C 123.461,203.224 123.794,203.557 124.5,202.5C 125.309,204.292 125.809,206.292 126,208.5C 126.49,207.207 126.657,205.873 126.5,204.5C 127.552,204.649 128.552,204.483 129.5,204C 128.587,202.586 128.587,201.086 129.5,199.5C 129.833,199.5 130.167,199.5 130.5,199.5C 131.167,199.5 131.5,199.833 131.5,200.5C 131.557,201.609 131.89,202.609 132.5,203.5C 131.833,203.5 131.5,203.833 131.5,204.5C 129.77,205.026 128.436,206.026 127.5,207.5C 127.5,208.167 127.833,208.5 128.5,208.5C 128.631,209.239 128.464,209.906 128,210.5C 125.546,208.987 123.879,209.654 123,212.5C 119.849,210.632 116.349,209.632 112.5,209.5C 112.141,211.766 112.808,213.599 114.5,215C 114.043,215.414 113.709,215.914 113.5,216.5C 115.743,217.474 118.076,217.808 120.5,217.5C 117.713,218.477 114.713,218.81 111.5,218.5C 111.5,208.833 111.5,199.167 111.5,189.5C 111.5,189.167 111.5,188.833 111.5,188.5 Z M 116.5,206.5 C 118.167,207.833 119.833,207.833 121.5,206.5C 122.167,206.5 122.833,206.5 123.5,206.5C 121.506,209.568 118.839,210.235 115.5,208.5C 115.328,207.508 115.662,206.842 116.5,206.5 Z M 123.5,201.5 C 123.167,201.5 122.833,201.5 122.5,201.5C 121.496,198.895 121.83,198.895 123.5,201.5 Z"/></g>
<g><path style="opacity:0.09" fill="#8f9890" d="M 116.5,206.5 C 115.662,206.842 115.328,207.508 115.5,208.5C 114.662,208.158 114.328,207.492 114.5,206.5C 115.167,201.167 115.833,201.167 116.5,206.5 Z"/></g>
</svg>
